<svg version="1.1" id="Layer_1" xmlns="http://www.w3.org/2000/svg" xmlns:xlink="http://www.w3.org/1999/xlink" x="0px" y="0px"
	 width="100%" viewBox="0 0 512 512" enable-background="new 0 0 512 512" xml:space="preserve">
<path fill="#010202" opacity="1.000000" stroke="none" 
	d="
M1.000000,190.000000 
	C1.000000,126.666664 1.000000,63.833332 1.000000,1.000000 
	C171.666672,1.000000 342.333344,1.000000 513.000000,1.000000 
	C513.000000,171.666672 513.000000,342.333344 513.000000,513.000000 
	C342.333344,513.000000 171.666672,513.000000 1.000000,513.000000 
	C1.000000,405.500000 1.000000,298.000000 1.000000,190.000000 
M81.930420,447.946930 
	C81.930420,465.911713 81.930420,483.876526 81.930420,501.841309 
	C90.168152,495.935944 97.127670,489.791046 103.880272,483.426636 
	C107.218384,480.280426 110.105255,480.255371 113.373886,483.397552 
	C117.091820,486.971680 120.971016,490.378937 124.803215,493.833099 
	C127.921448,496.643768 131.073730,499.416656 135.130005,503.023621 
	C135.130005,483.387634 135.130005,465.159637 135.283508,446.018860 
	C135.283508,442.099152 135.283508,438.179443 135.283508,434.237000 
	C117.083206,434.237000 99.691391,434.237000 82.068581,434.237000 
	C82.068581,438.746155 82.068581,442.883606 81.930420,447.946930 
M155.950912,451.020355 
	C161.608536,451.025085 167.266571,451.072357 172.923660,451.019257 
	C176.570938,450.985016 179.345490,452.131134 179.233063,456.257324 
	C179.128403,460.099182 176.419846,461.078461 173.003723,461.058197 
	C167.016388,461.022736 161.028259,461.125305 154.139969,461.011017 
	C151.365036,461.011017 148.590088,461.011017 145.762573,461.011017 
	C145.762573,468.430969 145.762573,475.305878 145.762573,482.204071 
	C149.112305,482.204071 152.072891,482.204071 155.949097,482.399963 
	C219.143372,482.399963 282.337646,482.399963 345.796021,482.399963 
	C345.796021,475.273041 345.796021,468.650238 345.914185,461.485291 
	C345.602234,461.385315 345.290283,461.285339 344.052368,461.050964 
	C302.254028,461.046387 260.455688,461.042175 218.657333,461.035919 
	C217.158737,461.035706 215.290375,461.574463 214.243286,460.881500 
	C212.411514,459.669220 209.872375,457.686127 209.883911,456.041840 
	C209.895615,454.372864 212.451813,452.470306 214.255402,451.172974 
	C215.138229,450.537994 216.841660,451.034821 218.173691,451.034760 
	C258.972931,451.033112 299.772156,451.033386 340.571381,451.033356 
	C342.315033,451.033356 344.058655,451.033356 345.614746,451.033356 
	C345.614746,444.859161 345.614746,439.436218 345.614746,433.820221 
	C343.473083,433.820221 341.651215,433.820221 339.829346,433.820221 
	C285.541382,433.820221 231.253433,433.813812 176.965469,433.827789 
	C169.642303,433.829651 162.319153,433.933655 154.102768,433.792511 
	C151.343964,433.792511 148.585175,433.792511 145.762268,433.792511 
	C145.762268,439.842010 145.762268,445.332581 145.762268,450.900574 
	C149.106064,450.900574 152.064774,450.900574 155.950912,451.020355 
M345.908539,387.120331 
	C345.908539,383.183624 345.908539,379.246887 345.908539,375.002899 
	C344.228149,375.002899 343.091919,375.002899 341.955658,375.002899 
	C252.575256,375.003235 163.194855,375.002991 73.814461,375.008820 
	C72.317085,375.008911 70.817879,375.048767 69.322609,375.128143 
	C45.314018,376.402527 24.195524,394.857178 19.975615,418.845490 
	C19.975105,425.770172 19.037815,432.849121 20.147816,439.590973 
	C23.630362,460.743073 43.097519,479.244049 63.641212,481.669830 
	C66.242104,481.872467 68.843002,482.075104 71.634445,482.292603 
	C71.634445,465.948456 71.634445,450.066101 71.634445,434.037720 
	C68.576416,434.037720 65.784035,434.037720 62.108597,433.841980 
	C60.942379,433.830780 59.776119,433.822662 58.609947,433.807831 
	C54.644806,433.757355 49.601276,434.526917 49.617867,428.727997 
	C49.634811,422.804901 54.792324,423.843414 58.671314,423.842621 
	C152.309326,423.822968 245.947342,423.827301 339.585358,423.827271 
	C341.541504,423.827271 343.497681,423.827271 345.642944,423.827271 
	C345.642944,417.811005 345.642944,412.266785 345.642944,406.321930 
	C343.377197,406.321930 341.408813,406.321930 339.440430,406.321930 
	C256.799042,406.321930 174.157654,406.322571 91.516273,406.317383 
	C89.851860,406.317261 87.873398,406.801880 86.598885,406.078369 
	C84.823318,405.070404 82.455750,403.166809 82.410255,401.586975 
	C82.363380,399.959381 84.511681,397.785614 86.238220,396.743103 
	C87.612122,395.913574 89.797279,396.355804 91.622292,396.355530 
	C174.097061,396.343597 256.571838,396.347076 339.046600,396.333954 
	C341.036072,396.333649 343.025513,396.166077 345.611145,396.091278 
	C345.675812,395.726654 345.740479,395.362030 345.929474,394.132935 
	C345.863190,392.102295 345.796906,390.071686 345.908539,387.120331 
M373.330566,331.069183 
	C373.330566,328.336365 373.330566,325.603516 373.330566,322.204224 
	C370.570068,323.201904 368.704651,323.829865 366.873413,324.545288 
	C352.619904,330.113617 338.332977,335.599609 324.143524,341.327026 
	C318.372559,343.656403 313.097473,343.849792 308.450684,339.247192 
	C303.775757,334.616699 304.046051,329.225922 306.300964,323.528290 
	C312.911591,306.824860 319.384308,290.066559 326.075928,273.395935 
	C327.033722,271.009918 328.593658,268.685211 330.400574,266.849579 
	C342.442657,254.616165 354.290039,242.156342 366.914581,230.546326 
	C372.853973,225.084213 374.413727,219.304337 373.283539,211.078537 
	C373.317719,147.256958 373.365753,83.435364 373.364319,19.613781 
	C373.364197,13.379330 371.581573,11.931265 364.529419,11.930848 
	C270.544739,11.925294 176.560074,11.926874 82.575409,11.926677 
	C80.994896,11.926674 79.414391,11.926678 77.858528,11.926678 
	C77.858528,129.960205 77.858528,247.230118 77.858528,364.997253 
	C79.837059,364.997253 81.632103,364.997223 83.427155,364.997223 
	C176.911911,364.997192 270.396667,364.997223 363.881409,364.997040 
	C364.881256,364.997040 365.881226,365.005707 366.880890,364.992401 
	C370.878113,364.939209 373.266846,362.925201 373.297485,358.929260 
	C373.366333,349.941956 373.187500,340.952789 373.330566,331.069183 
M29.440386,106.980629 
	C23.111744,115.674866 19.365032,125.343925 19.063829,136.126144 
	C18.942636,140.464523 17.934683,143.666229 13.099485,144.224350 
	C13.203869,148.609833 11.492607,152.811859 17.133190,155.351700 
	C20.472145,156.855194 19.200884,161.155731 15.140743,163.477600 
	C12.281809,165.112534 11.833440,172.559250 14.791199,173.750824 
	C18.570070,175.273178 18.964296,177.995499 18.933060,181.340866 
	C18.870209,188.071762 18.914356,194.803650 18.914356,202.983444 
	C31.445805,185.333206 47.491894,176.102982 67.351486,173.831497 
	C67.351486,144.270538 67.351486,115.204506 67.351486,85.625938 
	C51.589260,87.266785 39.402412,94.397835 29.440386,106.980629 
M67.650696,264.370544 
	C67.650696,237.755341 67.650696,211.140121 67.650696,184.279968 
	C66.272346,184.355408 65.296974,184.318909 64.352921,184.473572 
	C38.017326,188.787872 19.229898,210.496246 18.965822,237.271042 
	C18.767157,257.413635 18.916061,277.559692 18.929216,297.704224 
	C18.929785,298.574829 19.120739,299.445282 19.305853,301.020996 
	C31.410437,284.015747 47.261909,274.742828 67.650543,272.455780 
	C67.650543,269.919556 67.650543,267.624329 67.650696,264.370544 
M67.651337,288.695679 
	C67.651337,286.893311 67.651337,285.090973 67.651337,282.750580 
	C65.362617,283.038666 63.561497,283.123535 61.825611,283.505157 
	C36.297039,289.117279 19.150728,310.185486 18.945480,336.395752 
	C18.808638,353.870422 18.916605,371.347015 18.915037,388.822754 
	C18.914913,390.202820 18.915020,391.582855 18.915020,394.235291 
	C31.393759,376.529510 47.503822,367.373474 67.651184,364.994415 
	C67.651184,339.553009 67.651184,314.600708 67.651337,288.695679 
M26.499739,38.078415 
	C22.091133,45.504093 19.280102,53.509834 19.074589,62.142250 
	C18.777288,74.629936 18.935577,87.128693 18.929754,99.622742 
	C18.929199,100.812424 19.143074,102.002197 19.312086,103.761024 
	C30.971764,87.756165 45.714859,78.109840 64.858727,75.822800 
	C68.205116,75.423019 67.643745,73.155357 67.645119,71.059135 
	C67.657074,52.734032 67.660393,34.408905 67.633301,16.083830 
	C67.631470,14.847434 67.362122,13.611432 67.190628,12.148656 
	C49.553921,14.481408 36.270882,22.858467 26.499739,38.078415 
M449.141205,233.114944 
	C444.685669,228.504547 440.230103,223.894150 436.577759,220.114853 
	C411.168976,245.531021 386.421600,270.285583 362.284973,294.429260 
	C366.424896,298.635345 371.062744,303.347260 375.767242,308.126923 
	C376.030548,307.903625 376.568207,307.509399 377.034332,307.043579 
	C400.575684,283.518494 424.115326,259.991699 447.627319,236.437286 
	C448.398285,235.664917 448.881195,234.605011 449.141205,233.114944 
M356.377502,284.157837 
	C380.256439,260.278229 404.135376,236.398575 427.677216,212.856033 
	C422.716492,207.876358 417.960632,203.102341 413.906860,199.033066 
	C389.322205,223.620346 364.552704,248.392487 340.160034,272.787750 
	C344.362488,277.126129 348.969879,281.882507 353.630005,286.693329 
	C354.377869,286.035156 355.123322,285.379120 356.377502,284.157837 
M473.298187,157.150650 
	C467.272034,151.782303 461.165344,150.760376 456.358978,155.240097 
	C449.694031,161.452103 443.569153,168.243530 437.507751,174.483505 
	C449.414429,186.332108 461.410522,198.269730 473.524048,210.324173 
	C473.398376,210.383011 473.754547,210.314331 473.967896,210.102051 
	C479.516174,204.580811 485.110718,199.104111 490.569519,193.495392 
	C496.841583,187.051102 496.764862,180.794113 490.386353,174.281662 
	C484.909393,168.689621 479.335663,163.192352 473.298187,157.150650 
M373.358398,391.502136 
	C373.358398,385.879089 373.358398,380.256042 373.358398,375.015320 
	C367.289062,375.015320 361.763733,375.015320 356.196960,375.015320 
	C356.196960,411.044708 356.196960,446.448364 356.196960,482.387604 
	C358.888916,482.387604 361.336273,482.393311 363.783600,482.386536 
	C372.263855,482.363037 373.350769,481.308167 373.353973,472.936066 
	C373.364258,446.124451 373.358307,419.312836 373.358398,391.502136 
M347.418427,295.081573 
	C342.924744,290.592255 338.431030,286.102936 333.628662,281.305237 
	C330.451752,289.446411 327.489624,296.644104 324.913116,303.977234 
	C324.408234,305.414215 324.809113,307.903595 325.797943,309.003052 
	C329.899109,313.563171 334.341766,317.822327 338.770355,322.076080 
	C339.590515,322.863861 341.182037,323.807190 341.981812,323.509216 
	C349.999481,320.522186 357.926025,317.290527 366.369202,313.932495 
	C359.903778,307.502014 353.911133,301.541779 347.418427,295.081573 
M464.495605,219.616211 
	C464.392914,218.548065 464.709808,217.068451 464.125488,216.472610 
	C452.728821,204.851105 441.227020,193.332642 429.717072,181.763184 
	C426.599579,184.845444 423.776093,187.637054 421.767212,189.623245 
	C433.801147,201.908798 445.734070,214.091232 457.898071,226.509567 
	C459.828400,224.479889 461.890045,222.312119 464.495605,219.616211 
M428.517181,115.103615 
	C431.008484,112.317574 433.499817,109.531540 435.859467,106.892731 
	C433.241730,103.897667 430.806793,101.111771 428.469940,98.438057 
	C425.906311,101.349045 423.423676,104.168091 420.956421,106.969688 
	C423.323334,109.586502 425.628601,112.135109 428.517181,115.103615 
M322.597748,331.139679 
	C325.023438,330.196930 327.449127,329.254211 330.822845,327.943024 
	C327.752106,325.007477 325.287079,322.629303 322.794983,320.279877 
	C321.863098,319.401367 320.868103,318.589844 319.546173,317.437744 
	C318.279907,320.560181 316.978943,323.209473 316.152344,325.999329 
	C315.583160,327.920319 315.671387,330.036133 315.465820,332.064911 
	C317.604736,331.857025 319.743622,331.649139 322.597748,331.139679 
z"/>
<path fill="#72C2E8" opacity="1.000000" stroke="none" 
	d="
M373.109497,331.964355 
	C373.187500,340.952789 373.366333,349.941956 373.297485,358.929260 
	C373.266846,362.925201 370.878113,364.939209 366.880890,364.992401 
	C365.881226,365.005707 364.881256,364.997040 363.881409,364.997040 
	C270.396667,364.997223 176.911911,364.997192 83.427155,364.997223 
	C81.632103,364.997223 79.837059,364.997253 77.858528,364.997253 
	C77.858528,247.230118 77.858528,129.960205 77.858528,11.926678 
	C79.414391,11.926678 80.994896,11.926674 82.575409,11.926677 
	C176.560074,11.926874 270.544739,11.925294 364.529419,11.930848 
	C371.581573,11.931265 373.364197,13.379330 373.364319,19.613781 
	C373.365753,83.435364 373.317719,147.256958 372.864136,211.674591 
	C369.371674,214.888977 366.298584,217.507309 363.148682,219.675644 
	C363.024597,217.076691 363.487488,214.738831 362.781891,212.833710 
	C362.120880,211.048950 360.467743,209.242752 358.775085,208.377731 
	C357.790894,207.874786 354.754669,208.942169 354.562653,209.756119 
	C353.717133,213.340057 352.977997,217.169785 353.465027,220.737823 
	C353.657318,222.146652 357.145233,223.105637 359.054016,224.593353 
	C357.794403,226.296921 356.696655,227.759613 355.418976,229.043137 
	C345.086792,239.422546 334.573364,249.627365 324.455475,260.210693 
	C321.442474,263.362274 318.854645,267.277130 317.197144,271.305237 
	C310.436371,287.735229 304.008545,304.305237 297.669159,320.904297 
	C294.430878,329.383301 294.857452,337.664673 301.264221,344.668091 
	C307.863129,351.881561 315.936035,353.999054 325.251007,350.407623 
	C341.202850,344.257263 357.156555,338.111847 373.109497,331.964355 
M141.350159,271.155884 
	C164.537415,305.142273 196.776794,321.201843 237.588120,316.571198 
	C293.279144,310.252228 331.362305,259.833557 324.149445,204.030426 
	C317.095856,149.459747 264.056580,110.052322 210.056473,119.261047 
	C139.060974,131.368011 103.613831,208.993256 141.350159,271.155884 
M352.990631,45.500336 
	C352.990662,93.110626 352.990417,140.720917 352.991791,188.331207 
	C352.991821,189.829346 352.924988,191.333542 353.033905,192.824356 
	C353.258453,195.897980 354.986664,198.422546 357.976593,197.704681 
	C359.928589,197.236023 361.562256,194.610397 362.866302,192.638657 
	C363.481598,191.708298 362.994904,190.044159 362.994934,188.712494 
	C362.996185,136.441055 362.996063,84.169624 362.995239,31.898190 
	C362.995209,30.732950 363.038666,29.564491 362.969055,28.403091 
	C362.780426,25.254873 361.428589,22.523663 358.104767,22.506342 
	C354.642609,22.488302 352.897552,24.876852 352.968018,28.520126 
	C353.071014,33.845131 352.992035,39.173653 352.990631,45.500336 
M192.499969,81.837318 
	C227.660904,81.837303 262.821838,81.838287 297.982788,81.833862 
	C299.481506,81.833672 301.371124,82.344711 302.393127,81.633087 
	C304.211426,80.367012 306.663483,78.355927 306.677338,76.638947 
	C306.690063,75.058075 304.015900,73.201904 302.187897,71.966171 
	C301.264313,71.341827 299.594116,71.805122 298.261505,71.805046 
	C249.769409,71.802155 201.277298,71.801720 152.785202,71.806862 
	C151.286606,71.807022 149.507996,71.372635 148.355804,72.021446 
	C146.677948,72.966278 144.316101,74.712006 144.316162,76.116158 
	C144.316238,77.914017 146.095245,80.030952 147.651016,81.387070 
	C148.550293,82.170937 150.518814,81.819923 152.006393,81.822731 
	C165.170868,81.847572 178.335419,81.837234 192.499969,81.837318 
M239.500153,44.493458 
	C223.184402,44.494972 206.868622,44.510689 190.552902,44.486362 
	C187.172348,44.481319 184.339584,45.505394 184.193558,49.255169 
	C184.035233,53.321121 186.989471,54.591232 190.541519,54.595009 
	C213.849701,54.619801 237.157928,54.619953 260.466125,54.594967 
	C264.012024,54.591164 266.974701,53.340431 266.826752,49.267094 
	C266.690186,45.506035 263.854309,44.472054 260.478516,44.488304 
	C253.819199,44.520363 247.159592,44.495220 239.500153,44.493458 
z"/>
<path fill="#EDDCD1" opacity="1.000000" stroke="none" 
	d="
M62.958347,481.217010 
	C43.097519,479.244049 23.630362,460.743073 20.147816,439.590973 
	C19.037815,432.849121 19.975105,425.770172 20.418285,418.375854 
	C21.894621,416.632629 23.013689,415.418549 23.949030,414.076447 
	C35.983871,396.808380 52.977711,388.229767 73.557243,388.159973 
	C164.280792,387.852203 255.006012,388.035583 345.730591,388.041046 
	C345.796906,390.071686 345.863190,392.102295 345.681030,394.701294 
	C345.197479,395.488983 345.058289,395.757935 345.014984,396.076508 
	C343.025513,396.166077 341.036072,396.333649 339.046600,396.333954 
	C256.571838,396.347076 174.097061,396.343597 91.622292,396.355530 
	C89.797279,396.355804 87.612122,395.913574 86.238220,396.743103 
	C84.511681,397.785614 82.363380,399.959381 82.410255,401.586975 
	C82.455750,403.166809 84.823318,405.070404 86.598885,406.078369 
	C87.873398,406.801880 89.851860,406.317261 91.516273,406.317383 
	C174.157654,406.322571 256.799042,406.321930 339.440430,406.321930 
	C341.408813,406.321930 343.377197,406.321930 345.642944,406.321930 
	C345.642944,412.266785 345.642944,417.811005 345.642944,423.827271 
	C343.497681,423.827271 341.541504,423.827271 339.585358,423.827271 
	C245.947342,423.827301 152.309326,423.822968 58.671314,423.842621 
	C54.792324,423.843414 49.634811,422.804901 49.617867,428.727997 
	C49.601276,434.526917 54.644806,433.757355 58.609947,433.807831 
	C59.776119,433.822662 60.942379,433.830780 62.556511,434.406036 
	C62.989067,450.385742 62.973709,465.801361 62.958347,481.217010 
z"/>
<path fill="#F1E0D5" opacity="1.000000" stroke="none" 
	d="
M155.040451,461.170044 
	C161.028259,461.125305 167.016388,461.022736 173.003723,461.058197 
	C176.419846,461.078461 179.128403,460.099182 179.233063,456.257324 
	C179.345490,452.131134 176.570938,450.985016 172.923660,451.019257 
	C167.266571,451.072357 161.608536,451.025085 155.444321,450.500793 
	C154.957153,444.650940 154.976578,439.320618 154.996002,433.990356 
	C162.319153,433.933655 169.642303,433.829651 176.965469,433.827789 
	C231.253433,433.813812 285.541382,433.820221 339.829346,433.820221 
	C341.651215,433.820221 343.473083,433.820221 345.614746,433.820221 
	C345.614746,439.436218 345.614746,444.859161 345.614746,451.033356 
	C344.058655,451.033356 342.315033,451.033356 340.571381,451.033356 
	C299.772156,451.033386 258.972931,451.033112 218.173691,451.034760 
	C216.841660,451.034821 215.138229,450.537994 214.255402,451.172974 
	C212.451813,452.470306 209.895615,454.372864 209.883911,456.041840 
	C209.872375,457.686127 212.411514,459.669220 214.243286,460.881500 
	C215.290375,461.574463 217.158737,461.035706 218.657333,461.035919 
	C260.455688,461.042175 302.254028,461.046387 344.599609,461.303955 
	C345.304108,461.795319 345.520508,461.952118 345.796021,462.027405 
	C345.796021,468.650238 345.796021,475.273041 345.796021,482.399963 
	C282.337646,482.399963 219.143372,482.399963 155.445419,481.822021 
	C154.974640,474.552765 155.007553,467.861389 155.040451,461.170044 
M189.653046,457.098083 
	C190.747360,460.587646 193.350449,462.179199 196.380341,460.397980 
	C197.927841,459.488281 199.025131,456.373993 198.812622,454.420776 
	C198.673630,453.143188 195.225174,450.882141 194.307068,451.310089 
	C192.341644,452.226196 191.056046,454.600769 189.653046,457.098083 
z"/>
<path fill="#ADADAD" opacity="1.000000" stroke="none" 
	d="
M29.660896,106.698334 
	C39.402412,94.397835 51.589260,87.266785 67.351486,85.625938 
	C67.351486,115.204506 67.351486,144.270538 67.351486,173.831497 
	C47.491894,176.102982 31.445805,185.333206 18.914356,202.983444 
	C18.914356,194.803650 18.870209,188.071762 18.933060,181.340866 
	C18.964296,177.995499 18.570070,175.273178 14.791199,173.750824 
	C11.833440,172.559250 12.281809,165.112534 15.140743,163.477600 
	C19.200884,161.155731 20.472145,156.855194 17.133190,155.351700 
	C11.492607,152.811859 13.203869,148.609833 13.099485,144.224350 
	C17.934683,143.666229 18.942636,140.464523 19.063829,136.126144 
	C19.365032,125.343925 23.111744,115.674866 29.660896,106.698334 
z"/>
<path fill="#ADADAD" opacity="1.000000" stroke="none" 
	d="
M67.650620,264.849823 
	C67.650543,267.624329 67.650543,269.919556 67.650543,272.455780 
	C47.261909,274.742828 31.410437,284.015747 19.305853,301.020996 
	C19.120739,299.445282 18.929785,298.574829 18.929216,297.704224 
	C18.916061,277.559692 18.767157,257.413635 18.965822,237.271042 
	C19.229898,210.496246 38.017326,188.787872 64.352921,184.473572 
	C65.296974,184.318909 66.272346,184.355408 67.650696,184.279968 
	C67.650696,211.140121 67.650696,237.755341 67.650620,264.849823 
z"/>
<path fill="#D5C0B4" opacity="1.000000" stroke="none" 
	d="
M345.819580,387.580688 
	C255.006012,388.035583 164.280792,387.852203 73.557243,388.159973 
	C52.977711,388.229767 35.983871,396.808380 23.949030,414.076447 
	C23.013689,415.418549 21.894621,416.632629 20.535213,417.970917 
	C24.195524,394.857178 45.314018,376.402527 69.322609,375.128143 
	C70.817879,375.048767 72.317085,375.008911 73.814461,375.008820 
	C163.194855,375.002991 252.575256,375.003235 341.955658,375.002899 
	C343.091919,375.002899 344.228149,375.002899 345.908539,375.002899 
	C345.908539,379.246887 345.908539,383.183624 345.819580,387.580688 
z"/>
<path fill="#ADADAD" opacity="1.000000" stroke="none" 
	d="
M67.651260,289.172058 
	C67.651184,314.600708 67.651184,339.553009 67.651184,364.994415 
	C47.503822,367.373474 31.393759,376.529510 18.915020,394.235291 
	C18.915020,391.582855 18.914913,390.202820 18.915037,388.822754 
	C18.916605,371.347015 18.808638,353.870422 18.945480,336.395752 
	C19.150728,310.185486 36.297039,289.117279 61.825611,283.505157 
	C63.561497,283.123535 65.362617,283.038666 67.651337,282.750580 
	C67.651337,285.090973 67.651337,286.893311 67.651260,289.172058 
z"/>
<path fill="#ADADAD" opacity="1.000000" stroke="none" 
	d="
M26.693932,37.767372 
	C36.270882,22.858467 49.553921,14.481408 67.190628,12.148656 
	C67.362122,13.611432 67.631470,14.847434 67.633301,16.083830 
	C67.660393,34.408905 67.657074,52.734032 67.645119,71.059135 
	C67.643745,73.155357 68.205116,75.423019 64.858727,75.822800 
	C45.714859,78.109840 30.971764,87.756165 19.312086,103.761024 
	C19.143074,102.002197 18.929199,100.812424 18.929754,99.622742 
	C18.935577,87.128693 18.777288,74.629936 19.074589,62.142250 
	C19.280102,53.509834 22.091133,45.504093 26.693932,37.767372 
z"/>
<path fill="#FB5D3D" opacity="1.000000" stroke="none" 
	d="
M135.130005,446.931671 
	C135.130005,465.159637 135.130005,483.387634 135.130005,503.023621 
	C131.073730,499.416656 127.921448,496.643768 124.803215,493.833099 
	C120.971016,490.378937 117.091820,486.971680 113.373886,483.397552 
	C110.105255,480.255371 107.218384,480.280426 103.880272,483.426636 
	C97.127670,489.791046 90.168152,495.935944 81.930420,501.841309 
	C81.930420,483.876526 81.930420,465.911713 82.463074,447.463654 
	C100.373825,446.964142 117.751915,446.947906 135.130005,446.931671 
z"/>
<path fill="#EABB1F" opacity="1.000000" stroke="none" 
	d="
M449.319794,233.397049 
	C448.881195,234.605011 448.398285,235.664917 447.627319,236.437286 
	C424.115326,259.991699 400.575684,283.518494 377.034332,307.043579 
	C376.568207,307.509399 376.030548,307.903625 375.767242,308.126923 
	C371.062744,303.347260 366.424896,298.635345 362.284973,294.429260 
	C386.421600,270.285583 411.168976,245.531021 436.577759,220.114853 
	C440.230103,223.894150 444.685669,228.504547 449.319794,233.397049 
z"/>
<path fill="#EEBF20" opacity="1.000000" stroke="none" 
	d="
M356.123138,284.440460 
	C355.123322,285.379120 354.377869,286.035156 353.630005,286.693329 
	C348.969879,281.882507 344.362488,277.126129 340.160034,272.787750 
	C364.552704,248.392487 389.322205,223.620346 413.906860,199.033066 
	C417.960632,203.102341 422.716492,207.876358 427.677216,212.856033 
	C404.135376,236.398575 380.256439,260.278229 356.123138,284.440460 
z"/>
<path fill="#4AA2C5" opacity="1.000000" stroke="none" 
	d="
M373.220032,331.516785 
	C357.156555,338.111847 341.202850,344.257263 325.251007,350.407623 
	C315.936035,353.999054 307.863129,351.881561 301.264221,344.668091 
	C294.857452,337.664673 294.430878,329.383301 297.669159,320.904297 
	C304.008545,304.305237 310.436371,287.735229 317.197144,271.305237 
	C318.854645,267.277130 321.442474,263.362274 324.455475,260.210693 
	C334.573364,249.627365 345.086792,239.422546 355.418976,229.043137 
	C356.696655,227.759613 357.794403,226.296921 359.365265,224.468353 
	C360.911835,222.721527 362.068665,221.423569 363.225494,220.125641 
	C366.298584,217.507309 369.371674,214.888977 372.750977,212.131409 
	C374.413727,219.304337 372.853973,225.084213 366.914581,230.546326 
	C354.290039,242.156342 342.442657,254.616165 330.400574,266.849579 
	C328.593658,268.685211 327.033722,271.009918 326.075928,273.395935 
	C319.384308,290.066559 312.911591,306.824860 306.300964,323.528290 
	C304.046051,329.225922 303.775757,334.616699 308.450684,339.247192 
	C313.097473,343.849792 318.372559,343.656403 324.143524,341.327026 
	C338.332977,335.599609 352.619904,330.113617 366.873413,324.545288 
	C368.704651,323.829865 370.570068,323.201904 373.330566,322.204224 
	C373.330566,325.603516 373.330566,328.336365 373.220032,331.516785 
z"/>
<path fill="#F75B3C" opacity="1.000000" stroke="none" 
	d="
M473.551453,157.401917 
	C479.335663,163.192352 484.909393,168.689621 490.386353,174.281662 
	C496.764862,180.794113 496.841583,187.051102 490.569519,193.495392 
	C485.110718,199.104111 479.516174,204.580811 473.967896,210.102051 
	C473.754547,210.314331 473.398376,210.383011 473.524048,210.324173 
	C461.410522,198.269730 449.414429,186.332108 437.507751,174.483505 
	C443.569153,168.243530 449.694031,161.452103 456.358978,155.240097 
	C461.165344,150.760376 467.272034,151.782303 473.551453,157.401917 
z"/>
<path fill="#4BA5C8" opacity="1.000000" stroke="none" 
	d="
M373.358521,392.001678 
	C373.358307,419.312836 373.364258,446.124451 373.353973,472.936066 
	C373.350769,481.308167 372.263855,482.363037 363.783600,482.386536 
	C361.336273,482.393311 358.888916,482.387604 356.196960,482.387604 
	C356.196960,446.448364 356.196960,411.044708 356.196960,375.015320 
	C361.763733,375.015320 367.289062,375.015320 373.358398,375.015320 
	C373.358398,380.256042 373.358398,385.879089 373.358521,392.001678 
z"/>
<path fill="#EDDDD2" opacity="1.000000" stroke="none" 
	d="
M347.668457,295.331543 
	C353.911133,301.541779 359.903778,307.502014 366.369202,313.932495 
	C357.926025,317.290527 349.999481,320.522186 341.981812,323.509216 
	C341.182037,323.807190 339.590515,322.863861 338.770355,322.076080 
	C334.341766,317.822327 329.899109,313.563171 325.797943,309.003052 
	C324.809113,307.903595 324.408234,305.414215 324.913116,303.977234 
	C327.489624,296.644104 330.451752,289.446411 333.628662,281.305237 
	C338.431030,286.102936 342.924744,290.592255 347.668457,295.331543 
z"/>
<path fill="#B45035" opacity="1.000000" stroke="none" 
	d="
M135.206757,446.475281 
	C117.751915,446.947906 100.373825,446.964142 82.532158,447.000732 
	C82.068581,442.883606 82.068581,438.746155 82.068581,434.237000 
	C99.691391,434.237000 117.083206,434.237000 135.283508,434.237000 
	C135.283508,438.179443 135.283508,442.099152 135.206757,446.475281 
z"/>
<path fill="#EDEDED" opacity="1.000000" stroke="none" 
	d="
M464.223633,219.880280 
	C461.890045,222.312119 459.828400,224.479889 457.898071,226.509567 
	C445.734070,214.091232 433.801147,201.908798 421.767212,189.623245 
	C423.776093,187.637054 426.599579,184.845444 429.717072,181.763184 
	C441.227020,193.332642 452.728821,204.851105 464.125488,216.472610 
	C464.709808,217.068451 464.392914,218.548065 464.223633,219.880280 
z"/>
<path fill="#D1BCB0" opacity="1.000000" stroke="none" 
	d="
M63.299782,481.443420 
	C62.973709,465.801361 62.989067,450.385742 62.998035,434.503906 
	C65.784035,434.037720 68.576416,434.037720 71.634445,434.037720 
	C71.634445,450.066101 71.634445,465.948456 71.634445,482.292603 
	C68.843002,482.075104 66.242104,481.872467 63.299782,481.443420 
z"/>
<path fill="#CBB6AA" opacity="1.000000" stroke="none" 
	d="
M154.590210,461.090515 
	C155.007553,467.861389 154.974640,474.552765 154.987610,481.724091 
	C152.072891,482.204071 149.112305,482.204071 145.762573,482.204071 
	C145.762573,475.305878 145.762573,468.430969 145.762573,461.011017 
	C148.590088,461.011017 151.365036,461.011017 154.590210,461.090515 
z"/>
<path fill="#CBB6AB" opacity="1.000000" stroke="none" 
	d="
M154.549377,433.891418 
	C154.976578,439.320618 154.957153,444.650940 154.980591,450.440918 
	C152.064774,450.900574 149.106064,450.900574 145.762268,450.900574 
	C145.762268,445.332581 145.762268,439.842010 145.762268,433.792511 
	C148.585175,433.792511 151.343964,433.792511 154.549377,433.891418 
z"/>
<path fill="#E3B61E" opacity="1.000000" stroke="none" 
	d="
M428.225525,114.893669 
	C425.628601,112.135109 423.323334,109.586502 420.956421,106.969688 
	C423.423676,104.168091 425.906311,101.349045 428.469940,98.438057 
	C430.806793,101.111771 433.241730,103.897667 435.859467,106.892731 
	C433.499817,109.531540 431.008484,112.317574 428.225525,114.893669 
z"/>
<path fill="#A8A8A8" opacity="1.000000" stroke="none" 
	d="
M322.240143,331.290466 
	C319.743622,331.649139 317.604736,331.857025 315.465820,332.064880 
	C315.671387,330.036133 315.583160,327.920319 316.152344,325.999329 
	C316.978943,323.209473 318.279907,320.560181 319.546173,317.437744 
	C320.868103,318.589844 321.863098,319.401367 322.794983,320.279877 
	C325.287079,322.629303 327.752106,325.007477 330.822845,327.943024 
	C327.449127,329.254211 325.023438,330.196930 322.240143,331.290466 
z"/>
<path fill="#D5C0B4" opacity="1.000000" stroke="none" 
	d="
M345.313049,396.083893 
	C345.058289,395.757935 345.197479,395.488983 345.618835,395.133545 
	C345.740479,395.362030 345.675812,395.726654 345.313049,396.083893 
z"/>
<path fill="#CBB6AA" opacity="1.000000" stroke="none" 
	d="
M345.855103,461.756348 
	C345.520508,461.952118 345.304108,461.795319 345.062592,461.371155 
	C345.290283,461.285339 345.602234,461.385315 345.855103,461.756348 
z"/>
<path fill="#040506" opacity="1.000000" stroke="none" 
	d="
M141.164154,270.845306 
	C103.613831,208.993256 139.060974,131.368011 210.056473,119.261047 
	C264.056580,110.052322 317.095856,149.459747 324.149445,204.030426 
	C331.362305,259.833557 293.279144,310.252228 237.588120,316.571198 
	C196.776794,321.201843 164.537415,305.142273 141.164154,270.845306 
M242.217896,305.922089 
	C290.801453,296.654297 324.018005,249.008438 313.023529,198.247101 
	C303.879181,156.027740 263.321747,125.256966 220.382736,128.228134 
	C175.425003,131.338989 139.346695,166.492325 136.115677,210.334717 
	C131.759644,269.442719 182.865234,315.906677 242.217896,305.922089 
z"/>
<path fill="#C4E5FE" opacity="1.000000" stroke="none" 
	d="
M352.990601,45.000504 
	C352.992035,39.173653 353.071014,33.845131 352.968018,28.520126 
	C352.897552,24.876852 354.642609,22.488302 358.104767,22.506342 
	C361.428589,22.523663 362.780426,25.254873 362.969055,28.403091 
	C363.038666,29.564491 362.995209,30.732950 362.995239,31.898190 
	C362.996063,84.169624 362.996185,136.441055 362.994934,188.712494 
	C362.994904,190.044159 363.481598,191.708298 362.866302,192.638657 
	C361.562256,194.610397 359.928589,197.236023 357.976593,197.704681 
	C354.986664,198.422546 353.258453,195.897980 353.033905,192.824356 
	C352.924988,191.333542 352.991821,189.829346 352.991791,188.331207 
	C352.990417,140.720917 352.990662,93.110626 352.990601,45.000504 
z"/>
<path fill="#030507" opacity="1.000000" stroke="none" 
	d="
M191.999954,81.837311 
	C178.335419,81.837234 165.170868,81.847572 152.006393,81.822731 
	C150.518814,81.819923 148.550293,82.170937 147.651016,81.387070 
	C146.095245,80.030952 144.316238,77.914017 144.316162,76.116158 
	C144.316101,74.712006 146.677948,72.966278 148.355804,72.021446 
	C149.507996,71.372635 151.286606,71.807022 152.785202,71.806862 
	C201.277298,71.801720 249.769409,71.802155 298.261505,71.805046 
	C299.594116,71.805122 301.264313,71.341827 302.187897,71.966171 
	C304.015900,73.201904 306.690063,75.058075 306.677338,76.638947 
	C306.663483,78.355927 304.211426,80.367012 302.393127,81.633087 
	C301.371124,82.344711 299.481506,81.833672 297.982788,81.833862 
	C262.821838,81.838287 227.660904,81.837303 191.999954,81.837311 
z"/>
<path fill="#05090B" opacity="1.000000" stroke="none" 
	d="
M240.000122,44.493595 
	C247.159592,44.495220 253.819199,44.520363 260.478516,44.488304 
	C263.854309,44.472054 266.690186,45.506035 266.826752,49.267094 
	C266.974701,53.340431 264.012024,54.591164 260.466125,54.594967 
	C237.157928,54.619953 213.849701,54.619801 190.541519,54.595009 
	C186.989471,54.591232 184.035233,53.321121 184.193558,49.255169 
	C184.339584,45.505394 187.172348,44.481319 190.552902,44.486362 
	C206.868622,44.510689 223.184402,44.494972 240.000122,44.493595 
z"/>
<path fill="#C2E4FD" opacity="1.000000" stroke="none" 
	d="
M363.148682,219.675629 
	C362.068665,221.423569 360.911835,222.721527 359.443756,224.144470 
	C357.145233,223.105637 353.657318,222.146652 353.465027,220.737823 
	C352.977997,217.169785 353.717133,213.340057 354.562653,209.756119 
	C354.754669,208.942169 357.790894,207.874786 358.775085,208.377731 
	C360.467743,209.242752 362.120880,211.048950 362.781891,212.833710 
	C363.487488,214.738831 363.024597,217.076691 363.148682,219.675629 
z"/>
<path fill="#0D0C0B" opacity="1.000000" stroke="none" 
	d="
M189.572540,456.738068 
	C191.056046,454.600769 192.341644,452.226196 194.307068,451.310089 
	C195.225174,450.882141 198.673630,453.143188 198.812622,454.420776 
	C199.025131,456.373993 197.927841,459.488281 196.380341,460.397980 
	C193.350449,462.179199 190.747360,460.587646 189.572540,456.738068 
z"/>
<path fill="#EDEDED" opacity="1.000000" stroke="none" 
	d="
M241.785995,305.968506 
	C182.865234,315.906677 131.759644,269.442719 136.115677,210.334717 
	C139.346695,166.492325 175.425003,131.338989 220.382736,128.228134 
	C263.321747,125.256966 303.879181,156.027740 313.023529,198.247101 
	C324.018005,249.008438 290.801453,296.654297 241.785995,305.968506 
M217.233978,165.789459 
	C215.856430,164.219559 213.915848,161.110138 213.207260,161.369293 
	C211.107773,162.137131 209.494263,164.233719 206.818939,165.910873 
	C203.838394,165.987152 200.857849,166.063446 197.387283,165.600006 
	C195.277481,162.087082 192.428772,162.249130 189.251770,163.945755 
	C179.601135,169.099564 175.393097,177.422607 175.306305,188.073181 
	C175.236176,196.680832 175.292084,205.289520 175.292084,213.742630 
	C163.157166,216.995987 157.833466,222.837860 157.918045,232.360718 
	C158.005112,242.161591 163.314911,247.250092 177.176285,250.735962 
	C177.460510,251.621964 177.760742,252.566544 178.066360,253.509369 
	C184.548508,273.507355 202.654160,286.717102 224.047806,287.057739 
	C246.665817,287.417847 265.422546,275.011200 272.419403,254.797668 
	C273.491913,251.699188 274.529388,250.115295 278.253265,249.586349 
	C287.062775,248.335114 292.881683,241.211975 293.084625,232.754776 
	C293.293915,224.031281 288.086182,217.116791 279.540375,214.769592 
	C278.305969,214.430542 277.073212,214.085388 275.976898,213.781158 
	C275.154480,206.702042 275.634705,200.913940 281.171143,195.440048 
	C288.125854,188.563919 289.296143,179.336197 286.655426,169.852554 
	C284.035889,160.445038 276.739136,155.227295 269.066864,150.349792 
	C264.178070,147.241821 261.676697,147.974915 259.617157,153.392471 
	C257.674072,158.503632 254.125610,161.098251 248.616608,161.037933 
	C243.789093,160.985092 238.959900,161.076233 234.132660,161.012161 
	C230.717651,160.966843 228.292282,162.100739 226.834427,165.902344 
	C223.837021,166.007690 220.839600,166.113022 217.233978,165.789459 
z"/>
<path fill="#060505" opacity="1.000000" stroke="none" 
	d="
M227.710236,165.790222 
	C228.292282,162.100739 230.717651,160.966843 234.132660,161.012161 
	C238.959900,161.076233 243.789093,160.985092 248.616608,161.037933 
	C254.125610,161.098251 257.674072,158.503632 259.617157,153.392471 
	C261.676697,147.974915 264.178070,147.241821 269.066864,150.349792 
	C276.739136,155.227295 284.035889,160.445038 286.655426,169.852554 
	C289.296143,179.336197 288.125854,188.563919 281.171143,195.440048 
	C275.634705,200.913940 275.154480,206.702042 275.976898,213.781158 
	C277.073212,214.085388 278.305969,214.430542 279.540375,214.769592 
	C288.086182,217.116791 293.293915,224.031281 293.084625,232.754776 
	C292.881683,241.211975 287.062775,248.335114 278.253265,249.586349 
	C274.529388,250.115295 273.491913,251.699188 272.419403,254.797668 
	C265.422546,275.011200 246.665817,287.417847 224.047806,287.057739 
	C202.654160,286.717102 184.548508,273.507355 178.066360,253.509369 
	C177.760742,252.566544 177.460510,251.621964 177.176285,250.735962 
	C163.314911,247.250092 158.005112,242.161591 157.918045,232.360718 
	C157.833466,222.837860 163.157166,216.995987 175.292084,213.742630 
	C175.292084,205.289520 175.236176,196.680832 175.306305,188.073181 
	C175.393097,177.422607 179.601135,169.099564 189.251770,163.945755 
	C192.428772,162.249130 195.277481,162.087082 197.609650,166.240051 
	C196.726562,168.747070 196.073471,171.462204 194.437607,172.334656 
	C187.244370,176.171066 185.292023,182.347626 185.195160,189.834091 
	C185.152237,193.152069 185.939301,194.553986 189.615387,194.533508 
	C214.774384,194.393326 239.934555,194.473373 265.094238,194.425018 
	C266.537903,194.422241 268.370087,194.385483 269.358521,193.565445 
	C274.554626,189.254440 278.301453,183.914368 277.760406,176.832596 
	C277.232300,169.920959 273.774994,164.708405 266.855316,161.507919 
	C261.315979,170.084778 252.945374,171.686264 243.649338,171.076431 
	C240.497009,170.869629 237.317673,170.965912 234.154663,171.058914 
	C230.421875,171.168671 228.033813,169.779541 227.710236,165.790222 
M265.683350,231.394409 
	C265.683350,222.616669 265.683350,213.838928 265.683350,204.957550 
	C238.639771,204.957550 212.224213,204.957550 185.639542,204.957550 
	C185.639542,217.185608 185.050949,229.172150 185.787201,241.076736 
	C186.726608,256.266327 194.541916,267.612915 208.594147,273.612885 
	C223.098526,279.805939 237.380234,278.377106 250.214783,268.924072 
	C262.456451,259.907684 266.184723,246.945190 265.683350,231.394409 
M275.695007,234.323700 
	C275.695007,236.110092 275.695007,237.896469 275.695007,239.768936 
	C281.118896,238.581467 283.624512,235.705048 282.991638,231.286346 
	C282.435760,227.405014 280.450562,224.744186 275.695282,224.630066 
	C275.695282,227.774719 275.695282,230.575470 275.695007,234.323700 
M175.303802,231.466736 
	C175.303802,229.229828 175.303802,226.992905 175.303802,224.372421 
	C170.215973,225.258911 167.967239,227.925781 168.005112,232.221573 
	C168.043289,236.551285 170.432693,239.144272 175.303864,239.974030 
	C175.303864,237.276642 175.303864,234.852524 175.303802,231.466736 
z"/>
<path fill="#797877" opacity="1.000000" stroke="none" 
	d="
M227.272339,165.846283 
	C228.033813,169.779541 230.421875,171.168671 234.154663,171.058914 
	C237.317673,170.965912 240.497009,170.869629 243.649338,171.076431 
	C252.945374,171.686264 261.315979,170.084778 266.855316,161.507919 
	C273.774994,164.708405 277.232300,169.920959 277.760406,176.832596 
	C278.301453,183.914368 274.554626,189.254440 269.358521,193.565445 
	C268.370087,194.385483 266.537903,194.422241 265.094238,194.425018 
	C239.934555,194.473373 214.774384,194.393326 189.615387,194.533508 
	C185.939301,194.553986 185.152237,193.152069 185.195160,189.834091 
	C185.292023,182.347626 187.244370,176.171066 194.437607,172.334656 
	C196.073471,171.462204 196.726562,168.747070 197.854645,166.509903 
	C200.857849,166.063446 203.838394,165.987152 207.322876,166.249420 
	C209.349670,168.057129 211.256714,170.970840 212.314026,170.689651 
	C214.405228,170.133469 216.026581,167.810730 217.842194,166.218369 
	C220.839600,166.113022 223.837021,166.007690 227.272339,165.846283 
z"/>
<path fill="#090909" opacity="1.000000" stroke="none" 
	d="
M217.538086,166.003906 
	C216.026581,167.810730 214.405228,170.133469 212.314026,170.689651 
	C211.256714,170.970840 209.349670,168.057129 207.758759,166.199341 
	C209.494263,164.233719 211.107773,162.137131 213.207260,161.369293 
	C213.915848,161.110138 215.856430,164.219559 217.538086,166.003906 
z"/>
<path fill="#FAB39C" opacity="1.000000" stroke="none" 
	d="
M265.683319,231.877548 
	C266.184723,246.945190 262.456451,259.907684 250.214783,268.924072 
	C237.380234,278.377106 223.098526,279.805939 208.594147,273.612885 
	C194.541916,267.612915 186.726608,256.266327 185.787201,241.076736 
	C185.050949,229.172150 185.639542,217.185608 185.639542,204.957550 
	C212.224213,204.957550 238.639771,204.957550 265.683350,204.957550 
	C265.683350,213.838928 265.683350,222.616669 265.683319,231.877548 
M231.894333,264.734589 
	C235.411819,261.619995 239.250885,258.789307 242.337128,255.293945 
	C244.502563,252.841431 244.389572,249.450409 241.125977,247.588318 
	C237.968613,245.786804 235.657486,247.217026 233.789490,250.274353 
	C229.240906,257.718994 221.708435,257.809326 217.332703,250.460251 
	C215.516373,247.409698 213.238846,245.778061 210.060165,247.475571 
	C206.504059,249.374649 207.048294,252.497055 208.698120,255.644592 
	C212.888596,263.639191 221.310715,267.174286 231.894333,264.734589 
M229.706253,240.096893 
	C229.961273,235.141205 230.652603,230.148712 230.239319,225.249405 
	C230.090759,223.488358 227.282593,221.951675 225.688217,220.312592 
	C223.964996,221.991531 221.215576,223.426224 220.745010,225.403290 
	C219.918411,228.876175 220.343277,232.687363 220.503693,236.345459 
	C220.755814,242.094772 223.950912,243.657440 229.706253,240.096893 
M206.960098,229.641190 
	C207.676514,226.793030 208.871948,223.943924 208.866348,221.097183 
	C208.864197,220.005249 206.202209,218.227097 204.602707,218.040024 
	C203.226807,217.879120 201.021530,219.168655 200.253693,220.455658 
	C197.387268,225.260132 200.489365,230.023361 206.960098,229.641190 
M243.354080,229.099625 
	C245.703644,228.825089 249.608704,229.228210 250.084015,228.137161 
	C251.123657,225.750763 250.963776,222.439163 250.167313,219.852280 
	C249.845657,218.807526 246.329178,217.818359 244.701584,218.293610 
	C241.121750,219.338837 241.347870,222.754974 241.679657,225.778717 
	C241.781860,226.710083 242.379257,227.587097 243.354080,229.099625 
z"/>
<path fill="#F7B09A" opacity="1.000000" stroke="none" 
	d="
M275.695129,233.849960 
	C275.695282,230.575470 275.695282,227.774719 275.695282,224.630066 
	C280.450562,224.744186 282.435760,227.405014 282.991638,231.286346 
	C283.624512,235.705048 281.118896,238.581467 275.695007,239.768936 
	C275.695007,237.896469 275.695007,236.110092 275.695129,233.849960 
z"/>
<path fill="#F7B09A" opacity="1.000000" stroke="none" 
	d="
M175.303833,231.947571 
	C175.303864,234.852524 175.303864,237.276642 175.303864,239.974030 
	C170.432693,239.144272 168.043289,236.551285 168.005112,232.221573 
	C167.967239,227.925781 170.215973,225.258911 175.303802,224.372421 
	C175.303802,226.992905 175.303802,229.229828 175.303833,231.947571 
z"/>
<path fill="#070504" opacity="1.000000" stroke="none" 
	d="
M231.510986,264.846558 
	C221.310715,267.174286 212.888596,263.639191 208.698120,255.644592 
	C207.048294,252.497055 206.504059,249.374649 210.060165,247.475571 
	C213.238846,245.778061 215.516373,247.409698 217.332703,250.460251 
	C221.708435,257.809326 229.240906,257.718994 233.789490,250.274353 
	C235.657486,247.217026 237.968613,245.786804 241.125977,247.588318 
	C244.389572,249.450409 244.502563,252.841431 242.337128,255.293945 
	C239.250885,258.789307 235.411819,261.619995 231.510986,264.846558 
z"/>
<path fill="#0D0A08" opacity="1.000000" stroke="none" 
	d="
M229.441223,240.418930 
	C223.950912,243.657440 220.755814,242.094772 220.503693,236.345459 
	C220.343277,232.687363 219.918411,228.876175 220.745010,225.403290 
	C221.215576,223.426224 223.964996,221.991531 225.688217,220.312592 
	C227.282593,221.951675 230.090759,223.488358 230.239319,225.249405 
	C230.652603,230.148712 229.961273,235.141205 229.441223,240.418930 
z"/>
<path fill="#050303" opacity="1.000000" stroke="none" 
	d="
M206.566803,229.804169 
	C200.489365,230.023361 197.387268,225.260132 200.253693,220.455658 
	C201.021530,219.168655 203.226807,217.879120 204.602707,218.040024 
	C206.202209,218.227097 208.864197,220.005249 208.866348,221.097183 
	C208.871948,223.943924 207.676514,226.793030 206.566803,229.804169 
z"/>
<path fill="#020201" opacity="1.000000" stroke="none" 
	d="
M243.052002,228.794312 
	C242.379257,227.587097 241.781860,226.710083 241.679657,225.778717 
	C241.347870,222.754974 241.121750,219.338837 244.701584,218.293610 
	C246.329178,217.818359 249.845657,218.807526 250.167313,219.852280 
	C250.963776,222.439163 251.123657,225.750763 250.084015,228.137161 
	C249.608704,229.228210 245.703644,228.825089 243.052002,228.794312 
z"/>
</svg>