<svg version="1.1" id="Layer_1" xmlns="http://www.w3.org/2000/svg" xmlns:xlink="http://www.w3.org/1999/xlink" x="0px" y="0px" width="100%" viewBox="0 0 512 512" enable-background="new 0 0 512 512" xml:space="preserve">
<path fill="#B14796" opacity="1.000000" stroke="none" d="
M244.000000,0.999999 
	C252.354233,1.000000 260.708466,1.000000 269.219360,1.301986 
	C275.158600,4.539581 281.077698,7.236673 286.698700,10.454520 
	C305.241119,21.069469 323.646332,31.923855 342.160065,42.589336 
	C360.688538,53.263275 379.307648,63.779819 397.843781,74.440498 
	C416.937775,85.422005 435.970215,96.510437 455.048187,107.519844 
	C464.693146,113.085701 474.684387,118.227821 479.488098,129.061584 
	C477.943176,129.688446 476.680328,130.137817 475.538513,130.796860 
	C451.123932,144.887985 426.756317,159.061005 402.290039,173.061630 
	C397.598907,175.746094 392.530090,177.770462 387.374817,179.901642 
	C339.629761,101.159218 238.272751,83.237206 168.653503,134.471741 
	C121.891441,168.885086 101.610497,216.152695 106.785873,274.081696 
	C108.665520,295.120880 115.850014,314.526184 125.572815,333.013367 
	C123.423737,333.937042 121.559196,334.678619 119.838371,335.669739 
	C95.323593,349.789978 70.849922,363.981781 46.306404,378.051758 
	C42.308422,380.343689 38.022278,382.132935 33.575260,383.936035 
	C31.854307,378.564117 29.203363,373.415070 29.184629,368.256439 
	C28.915375,294.111145 28.820414,219.963699 29.187149,145.819229 
	C29.244761,134.171814 34.400791,123.761223 44.478786,116.977348 
	C52.740948,111.415779 61.440372,106.490616 70.048607,101.458954 
	C90.808258,89.324570 111.597519,77.240074 132.432709,65.235893 
	C150.846008,54.627071 169.283875,44.058479 187.809631,33.647820 
	C206.305252,23.254082 224.927399,13.085561 243.460846,2.758689 
	C243.847244,2.543391 243.829300,1.602430 244.000000,0.999999 
z" data-index="0"></path>
<path fill="#000000" opacity="1.000000" stroke="none" d="
M243.531342,0.999999 
	C243.829300,1.602430 243.847244,2.543391 243.460846,2.758689 
	C224.927399,13.085561 206.305252,23.254082 187.809631,33.647820 
	C169.283875,44.058479 150.846008,54.627071 132.432709,65.235893 
	C111.597519,77.240074 90.808258,89.324570 70.048607,101.458954 
	C61.440372,106.490616 52.740948,111.415779 44.478786,116.977348 
	C34.400791,123.761223 29.244761,134.171814 29.187149,145.819229 
	C28.820414,219.963699 28.915375,294.111145 29.184629,368.256439 
	C29.203363,373.415070 31.854307,378.564117 33.609116,384.286316 
	C37.111130,391.419647 41.984810,396.460083 48.202827,400.115051 
	C64.490578,409.688995 80.824799,419.184906 97.193779,428.619415 
	C115.702881,439.287445 134.290253,449.819611 152.805984,460.476166 
	C169.607468,470.146057 186.275894,480.050018 203.158264,489.575592 
	C216.296066,496.988403 229.678833,503.966644 242.920441,511.197205 
	C243.450424,511.486572 243.647720,512.385193 244.000000,513.000000 
	C163.035507,513.000000 82.071030,513.000000 1.053272,513.000000 
	C1.053272,342.443695 1.053272,171.887360 1.053272,1.000000 
	C81.687256,1.000000 162.374969,1.000000 243.531342,0.999999 
z" data-index="1" style="opacity: 1; visibility: visible; fill: rgb(255, 255, 255);"></path>
<path fill="#000000" opacity="1.000000" stroke="none" d="
M479.826477,128.981750 
	C474.684387,118.227821 464.693146,113.085701 455.048187,107.519844 
	C435.970215,96.510437 416.937775,85.422005 397.843781,74.440498 
	C379.307648,63.779819 360.688538,53.263275 342.160065,42.589336 
	C323.646332,31.923855 305.241119,21.069469 286.698700,10.454520 
	C281.077698,7.236673 275.158600,4.539581 269.688019,1.301986 
	C350.964478,1.000000 431.928955,1.000000 512.946716,1.000000 
	C512.946716,171.556305 512.946716,342.112610 512.946716,513.000000 
	C432.312744,513.000000 351.625031,513.000000 270.374329,512.631348 
	C271.069122,511.579773 272.334412,510.910309 273.583557,510.212006 
	C293.085480,499.310181 312.662048,488.539185 332.065704,477.465179 
	C355.196045,464.264282 378.152679,450.759491 401.231079,437.467163 
	C422.031219,425.487030 442.980652,413.763214 463.677765,401.608795 
	C470.021362,397.883484 476.040710,393.396820 479.351685,385.949524 
	C483.631958,378.530487 485.092560,370.828156 485.079010,362.565460 
	C484.961945,291.108490 485.147278,219.650543 484.791840,148.195160 
	C484.759918,141.782608 481.556824,135.385849 479.826477,128.981750 
z" data-index="2" style="opacity: 1; visibility: visible; fill: rgb(255, 255, 255);"></path>
<path fill="#782379" opacity="1.000000" stroke="none" d="
M479.046814,386.144867 
	C476.040710,393.396820 470.021362,397.883484 463.677765,401.608795 
	C442.980652,413.763214 422.031219,425.487030 401.231079,437.467163 
	C378.152679,450.759491 355.196045,464.264282 332.065704,477.465179 
	C312.662048,488.539185 293.085480,499.310181 273.583557,510.212006 
	C272.334412,510.910309 271.069122,511.579773 269.905670,512.631348 
	C261.645752,513.000000 253.291534,513.000000 244.468658,513.000000 
	C243.647720,512.385193 243.450424,511.486572 242.920441,511.197205 
	C229.678833,503.966644 216.296066,496.988403 203.158264,489.575592 
	C186.275894,480.050018 169.607468,470.146057 152.805984,460.476166 
	C134.290253,449.819611 115.702881,439.287445 97.193779,428.619415 
	C80.824799,419.184906 64.490578,409.688995 48.202827,400.115051 
	C41.984810,396.460083 37.111130,391.419647 33.903175,384.504761 
	C38.022278,382.132935 42.308422,380.343689 46.306404,378.051758 
	C70.849922,363.981781 95.323593,349.789978 119.838371,335.669739 
	C121.559196,334.678619 123.423737,333.937042 125.808594,333.269348 
	C126.921669,334.305695 127.451050,335.149933 127.973007,335.998779 
	C172.955170,409.155518 269.456940,430.426971 340.810089,382.941742 
	C360.408386,369.899139 375.816406,352.926331 388.429108,333.049133 
	C390.726868,334.038940 392.762451,334.801666 394.619141,335.874176 
	C417.874451,349.307068 441.138733,362.725250 464.312592,376.297607 
	C469.401062,379.277710 474.144501,382.846924 479.046814,386.144867 
z" data-index="3" style="opacity: 1;"></path>
<path fill="#FFFEFF" opacity="1.000000" stroke="none" d="
M388.083801,332.966064 
	C375.816406,352.926331 360.408386,369.899139 340.810089,382.941742 
	C269.456940,430.426971 172.955170,409.155518 127.973007,335.998779 
	C127.451050,335.149933 126.921669,334.305695 126.159973,333.203308 
	C115.850014,314.526184 108.665520,295.120880 106.785873,274.081696 
	C101.610497,216.152695 121.891441,168.885086 168.653503,134.471741 
	C238.272751,83.237206 339.629761,101.159218 387.369385,180.234329 
	C385.931763,181.993408 384.335602,183.390839 382.531250,184.424896 
	C362.374847,195.976547 342.186340,207.472107 321.849274,218.684174 
	C293.266937,171.825684 228.578049,169.504822 196.663544,211.921860 
	C178.756882,235.721283 176.696426,271.124756 191.882584,294.418945 
	C192.623032,295.906586 193.242661,297.085938 193.978546,298.187592 
	C226.285645,346.553772 295.816803,341.845856 322.608307,294.210510 
	C344.033417,306.470520 365.145050,318.625580 386.226257,330.833252 
	C386.998260,331.280304 387.471375,332.243469 388.083801,332.966064 
z" data-index="4"></path>
<path fill="#962D87" opacity="1.000000" stroke="none" d="
M388.429108,333.049133 
	C387.471375,332.243469 386.998260,331.280304 386.226257,330.833252 
	C365.145050,318.625580 344.033417,306.470520 322.292480,294.036438 
	C311.739166,287.992126 301.794434,282.261871 291.908264,276.432251 
	C280.889282,269.934662 269.923584,263.346802 259.062988,256.493225 
	C263.799103,253.289581 268.334717,250.267822 273.027832,247.514496 
	C289.324493,237.953598 305.675873,228.485916 322.006470,218.982788 
	C342.186340,207.472107 362.374847,195.976547 382.531250,184.424896 
	C384.335602,183.390839 385.931763,181.993408 387.630066,180.432068 
	C392.530090,177.770462 397.598907,175.746094 402.290039,173.061630 
	C426.756317,159.061005 451.123932,144.887985 475.538513,130.796860 
	C476.680328,130.137817 477.943176,129.688446 479.488068,129.061600 
	C481.556824,135.385849 484.759918,141.782608 484.791840,148.195160 
	C485.147278,219.650543 484.961945,291.108490 485.079010,362.565460 
	C485.092560,370.828156 483.631958,378.530487 479.351685,385.949524 
	C474.144501,382.846924 469.401062,379.277710 464.312592,376.297607 
	C441.138733,362.725250 417.874451,349.307068 394.619141,335.874176 
	C392.762451,334.801666 390.726868,334.038940 388.429108,333.049133 
M451.063843,280.070221 
	C451.063843,275.758881 451.063843,271.447540 451.063843,266.581848 
	C446.975922,266.581848 443.223419,266.581848 439.309174,266.581848 
	C439.309174,260.276978 439.309174,254.532944 439.309174,248.189240 
	C443.300629,248.189240 447.036865,248.189240 450.844666,248.189240 
	C450.844666,243.002594 450.844666,238.420883 450.844666,233.229492 
	C446.847321,233.229492 443.113434,233.229492 438.842743,233.229492 
	C438.842743,228.900955 438.842743,225.163834 438.842743,221.435455 
	C433.677917,221.435455 429.090851,221.435455 423.951050,221.435455 
	C423.951050,225.458633 423.951050,229.200134 423.951050,232.907990 
	C417.663208,232.907990 411.942780,232.907990 405.634247,232.907990 
	C405.634247,228.801880 405.634247,225.082382 405.634247,221.484009 
	C400.434845,221.484009 395.846222,221.484009 390.690918,221.484009 
	C390.690918,225.556900 390.690918,229.285446 390.690918,233.452148 
	C386.508179,233.452148 382.896545,233.452148 379.205078,233.452148 
	C379.205078,238.632690 379.205078,243.345825 379.205078,248.475220 
	C383.222961,248.475220 386.834564,248.475220 390.622192,248.475220 
	C390.622192,254.651260 390.622192,260.394409 390.622192,266.752167 
	C386.599915,266.752167 382.862152,266.752167 379.127686,266.752167 
	C379.127686,271.956909 379.127686,276.536743 379.127686,281.359436 
	C383.163513,281.548859 386.893341,281.723938 391.001282,281.916779 
	C391.001282,286.037933 391.001282,289.646667 391.001282,293.427429 
	C396.144196,293.427429 400.854919,293.427429 406.139160,293.427429 
	C406.139160,289.325897 406.139160,285.591522 406.139160,281.891388 
	C412.326660,281.891388 417.930389,281.891388 424.105103,281.891388 
	C424.105103,285.891510 424.105103,289.632050 424.105103,293.556763 
	C429.268005,293.556763 433.854523,293.556763 438.996887,293.556763 
	C438.996887,289.594055 438.996887,285.850922 438.996887,282.086945 
	C443.284271,281.669373 447.024139,281.305084 451.063843,280.070221 
z" data-index="5"></path>
<path fill="#B14796" opacity="1.000000" stroke="none" d="
M321.849274,218.684174 
	C305.675873,228.485916 289.324493,237.953598 273.027832,247.514496 
	C268.334717,250.267822 263.799103,253.289581 258.693420,256.539154 
	C255.359634,258.224640 252.419693,259.376648 249.704468,260.923157 
	C230.382568,271.928345 211.106598,283.014221 191.815994,294.074371 
	C176.696426,271.124756 178.756882,235.721283 196.663544,211.921860 
	C228.578049,169.504822 293.266937,171.825684 321.849274,218.684174 
z" data-index="6"></path>
<path fill="#782479" opacity="1.000000" stroke="none" d="
M191.882584,294.418945 
	C211.106598,283.014221 230.382568,271.928345 249.704468,260.923157 
	C252.419693,259.376648 255.359634,258.224640 258.565125,256.844116 
	C269.923584,263.346802 280.889282,269.934662 291.908264,276.432251 
	C301.794434,282.261871 311.739166,287.992126 321.973938,293.940308 
	C295.816803,341.845856 226.285645,346.553772 193.978546,298.187592 
	C193.242661,297.085938 192.623032,295.906586 191.882584,294.418945 
z" data-index="7"></path>
<path fill="#FDFBFD" opacity="1.000000" stroke="none" d="
M450.913940,280.505524 
	C447.024139,281.305084 443.284271,281.669373 438.996887,282.086945 
	C438.996887,285.850922 438.996887,289.594055 438.996887,293.556763 
	C433.854523,293.556763 429.268005,293.556763 424.105103,293.556763 
	C424.105103,289.632050 424.105103,285.891510 424.105103,281.891388 
	C417.930389,281.891388 412.326660,281.891388 406.139160,281.891388 
	C406.139160,285.591522 406.139160,289.325897 406.139160,293.427429 
	C400.854919,293.427429 396.144196,293.427429 391.001282,293.427429 
	C391.001282,289.646667 391.001282,286.037933 391.001282,281.916779 
	C386.893341,281.723938 383.163513,281.548859 379.127686,281.359436 
	C379.127686,276.536743 379.127686,271.956909 379.127686,266.752167 
	C382.862152,266.752167 386.599915,266.752167 390.622192,266.752167 
	C390.622192,260.394409 390.622192,254.651260 390.622192,248.475220 
	C386.834564,248.475220 383.222961,248.475220 379.205078,248.475220 
	C379.205078,243.345825 379.205078,238.632690 379.205078,233.452148 
	C382.896545,233.452148 386.508179,233.452148 390.690918,233.452148 
	C390.690918,229.285446 390.690918,225.556900 390.690918,221.484009 
	C395.846222,221.484009 400.434845,221.484009 405.634247,221.484009 
	C405.634247,225.082382 405.634247,228.801880 405.634247,232.907990 
	C411.942780,232.907990 417.663208,232.907990 423.951050,232.907990 
	C423.951050,229.200134 423.951050,225.458633 423.951050,221.435455 
	C429.090851,221.435455 433.677917,221.435455 438.842743,221.435455 
	C438.842743,225.163834 438.842743,228.900955 438.842743,233.229492 
	C443.113434,233.229492 446.847321,233.229492 450.844666,233.229492 
	C450.844666,238.420883 450.844666,243.002594 450.844666,248.189240 
	C447.036865,248.189240 443.300629,248.189240 439.309174,248.189240 
	C439.309174,254.532944 439.309174,260.276978 439.309174,266.581848 
	C443.223419,266.581848 446.975922,266.581848 451.063843,266.581848 
	C451.063843,271.447540 451.063843,275.758881 450.913940,280.505524 
M405.897308,260.377136 
	C405.897308,262.311340 405.897308,264.245575 405.897308,266.311707 
	C412.273987,266.311707 418.004639,266.311707 423.730530,266.311707 
	C423.730530,260.208527 423.730530,254.463135 423.730530,248.612762 
	C417.678558,248.612762 411.953461,248.612762 405.897308,248.612762 
	C405.897308,252.451263 405.897308,255.933823 405.897308,260.377136 
z" data-index="8"></path>
<path fill="#9A358C" opacity="1.000000" stroke="none" d="
M405.897308,259.896759 
	C405.897308,255.933823 405.897308,252.451263 405.897308,248.612762 
	C411.953461,248.612762 417.678558,248.612762 423.730530,248.612762 
	C423.730530,254.463135 423.730530,260.208527 423.730530,266.311707 
	C418.004639,266.311707 412.273987,266.311707 405.897308,266.311707 
	C405.897308,264.245575 405.897308,262.311340 405.897308,259.896759 
z" data-index="9"></path>
</svg>