<svg version="1.1" id="Layer_1" xmlns="http://www.w3.org/2000/svg" xmlns:xlink="http://www.w3.org/1999/xlink" x="0px" y="0px" width="100%" viewBox="0 0 512 512" enable-background="new 0 0 512 512" xml:space="preserve">
<path fill="#29A5D1" opacity="1.000000" stroke="none" d="
M257.000000,513.000000 
	C255.933334,513.000000 254.866653,513.000000 253.740295,512.752686 
	C252.336411,511.636017 251.060776,510.629852 249.638214,509.916840 
	C189.290909,479.668793 128.945419,449.416962 68.530998,419.303436 
	C65.256851,417.671448 63.948425,415.749420 63.923779,412.194580 
	C63.895340,408.092865 63.393723,403.982117 62.905148,399.898285 
	C61.660652,389.496002 60.238140,379.114868 59.020985,368.709534 
	C57.896633,359.097595 57.008789,349.458069 55.902958,339.843811 
	C54.668896,329.114716 53.251511,318.406769 52.016376,307.677795 
	C50.910122,298.068390 50.010616,288.435120 48.896492,278.826691 
	C47.671230,268.259796 46.263733,257.714081 45.014988,247.149780 
	C44.205860,240.304657 43.609951,233.434235 42.791550,226.590317 
	C41.587219,216.519104 40.187840,206.470856 39.023628,196.395264 
	C37.893833,186.617493 37.063404,176.804825 35.907303,167.030457 
	C34.370461,154.037109 32.538113,141.078415 31.035513,128.081406 
	C29.847841,117.808403 29.071224,107.488281 27.922588,97.210266 
	C26.376583,83.376595 24.632187,69.565193 23.005920,55.740356 
	C22.278097,49.553143 21.625256,43.357059 20.947489,37.164009 
	C19.628265,25.109713 18.315462,13.054710 17.000000,1.000000 
	C96.687561,1.000000 176.375122,1.000000 256.530945,1.468657 
	C257.006348,22.862684 257.013489,43.788055 256.992432,64.819336 
	C256.964233,64.925240 256.982910,65.143623 256.521942,65.071976 
	C200.450623,65.000320 144.840286,65.000320 88.694336,65.000320 
	C91.148582,86.578880 93.531776,107.532669 95.980980,129.066833 
	C149.154449,129.066833 201.956818,129.066833 254.759186,129.066833 
	C253.567505,130.581345 252.298996,131.318268 250.995560,131.987167 
	C204.052872,156.077469 157.127670,180.202103 110.121948,204.168808 
	C106.375557,206.078964 104.380424,207.819427 105.596291,212.436813 
	C106.644745,216.418442 106.586334,220.686493 107.078560,224.820618 
	C108.350410,235.502701 109.656151,246.180740 110.980423,257.125458 
	C126.870445,257.125458 142.182953,257.142883 157.495392,257.121887 
	C190.655823,257.076385 223.816238,257.011200 256.970917,257.093140 
	C256.965179,257.232147 257.003998,257.507660 257.003021,257.943176 
	C257.009949,295.542328 257.017853,332.705902 257.009155,369.991821 
	C256.992523,370.114166 257.013153,370.360260 256.658447,370.253815 
	C233.439804,358.604095 210.542068,347.126312 187.778214,335.388947 
	C186.021790,334.483276 184.377457,331.869110 184.089233,329.848206 
	C182.168274,316.379456 180.630569,302.856049 178.972214,289.381805 
	C157.383759,289.381805 136.198334,289.381805 115.057236,289.381805 
	C115.057236,291.126953 114.926544,292.468811 115.076614,293.778473 
	C117.861313,318.081055 120.993652,342.350159 123.290718,366.698212 
	C123.942650,373.608398 126.339355,377.623138 132.776703,379.812195 
	C136.208755,380.979248 139.350464,382.999023 142.625275,384.629761 
	C180.433823,403.457306 218.242767,422.284027 256.181885,441.308990 
	C256.561890,441.701996 256.816437,441.890442 257.059418,442.536255 
	C257.028717,466.333405 257.014374,489.666687 257.000000,513.000000 
z" data-index="0" style="opacity: 1;"></path>
<path fill="#208DB8" opacity="1.000000" stroke="none" d="
M257.020630,64.713425 
	C257.013489,43.788055 257.006348,22.862684 256.999634,1.468657 
	C336.687561,1.000000 416.375122,1.000000 496.532715,1.454132 
	C496.675232,6.006610 496.413605,10.111496 496.007202,14.202001 
	C495.017365,24.164555 494.041382,34.129662 492.908356,44.076492 
	C491.704224,54.647953 490.296082,65.196014 489.034058,75.761101 
	C488.255463,82.279129 487.623138,88.814575 486.854675,95.333893 
	C485.608246,105.908188 484.279846,116.472832 483.032776,127.047050 
	C482.225922,133.888428 481.538940,140.743927 480.732880,147.585419 
	C479.525574,157.832886 478.193512,168.066040 477.039734,178.319366 
	C475.920197,188.268082 475.045624,198.244568 473.903931,208.190536 
	C472.709167,218.598846 471.261475,228.977966 470.040924,239.383514 
	C468.912994,249.000000 467.996490,258.641205 466.882507,268.259430 
	C465.658142,278.830872 464.281769,289.384644 463.034515,299.953552 
	C462.226776,306.798309 461.582489,313.662354 460.774323,320.507050 
	C459.564941,330.750397 458.203033,340.976074 457.041534,351.224640 
	C455.914062,361.173035 455.043884,371.150757 453.902222,381.097382 
	C452.707367,391.507751 451.108368,401.876495 450.141205,412.305664 
	C449.808899,415.889252 448.607483,417.811005 445.383270,419.384216 
	C430.937103,426.433228 416.636261,433.779358 402.258331,440.968933 
	C356.222504,463.988800 310.171234,486.977783 264.157410,510.041443 
	C262.921204,510.661072 262.044403,511.997742 261.000000,513.000000 
	C259.933319,513.000000 258.866669,513.000000 257.399994,513.000000 
	C257.014374,489.666687 257.028717,466.333405 257.366974,442.377747 
	C258.124969,441.513336 258.550232,441.253571 258.994415,441.031738 
	C301.186829,419.958130 343.390198,398.906281 385.540558,377.748993 
	C387.267120,376.882324 389.531403,375.191284 389.785492,373.602844 
	C391.148560,365.082153 391.987183,356.475922 392.944275,347.892242 
	C395.374023,326.101929 397.702545,304.300079 400.198212,282.517365 
	C403.034088,257.765625 406.033966,233.032654 408.898895,208.284164 
	C409.479614,203.267639 409.776367,198.218246 410.255371,192.579651 
	C364.725098,192.579651 320.027374,192.579651 275.329620,192.579651 
	C280.009766,189.022888 284.926819,186.453003 289.868561,183.931458 
	C331.762329,162.554962 373.673126,141.211761 415.514709,119.733696 
	C417.319458,118.807281 419.546143,116.813660 419.799286,115.060593 
	C421.436218,103.723343 422.627686,92.320030 423.862274,80.927216 
	C424.423767,75.745468 424.750153,70.538239 425.218689,64.916344 
	C422.247223,64.916344 420.103607,64.916351 417.959991,64.916344 
	C369.141052,64.916344 320.322113,64.921997 271.503174,64.907455 
	C266.675629,64.906021 261.848145,64.781059 257.020630,64.713425 
z" data-index="1" style="opacity: 1;"></path>
<path fill="#000000" opacity="1.000000" stroke="none" d="
M261.468689,513.000000 
	C262.044403,511.997742 262.921204,510.661072 264.157410,510.041443 
	C310.171234,486.977783 356.222504,463.988800 402.258331,440.968933 
	C416.636261,433.779358 430.937103,426.433228 445.383270,419.384216 
	C448.607483,417.811005 449.808899,415.889252 450.141205,412.305664 
	C451.108368,401.876495 452.707367,391.507751 453.902222,381.097382 
	C455.043884,371.150757 455.914062,361.173035 457.041534,351.224640 
	C458.203033,340.976074 459.564941,330.750397 460.774323,320.507050 
	C461.582489,313.662354 462.226776,306.798309 463.034515,299.953552 
	C464.281769,289.384644 465.658142,278.830872 466.882507,268.259430 
	C467.996490,258.641205 468.912994,249.000000 470.040924,239.383514 
	C471.261475,228.977966 472.709167,218.598846 473.903931,208.190536 
	C475.045624,198.244568 475.920197,188.268082 477.039734,178.319366 
	C478.193512,168.066040 479.525574,157.832886 480.732880,147.585419 
	C481.538940,140.743927 482.225922,133.888428 483.032776,127.047050 
	C484.279846,116.472832 485.608246,105.908188 486.854675,95.333893 
	C487.623138,88.814575 488.255463,82.279129 489.034058,75.761101 
	C490.296082,65.196014 491.704224,54.647953 492.908356,44.076492 
	C494.041382,34.129662 495.017365,24.164555 496.007202,14.202001 
	C496.413605,10.111496 496.675232,6.006610 497.001343,1.454132 
	C502.330353,1.000000 507.660675,1.000000 512.993286,1.000000 
	C512.995483,171.567917 512.995483,342.135834 512.995483,513.000000 
	C429.312683,513.000000 345.625000,513.000000 261.468689,513.000000 
z" data-index="2" style="opacity: 1; visibility: visible; fill: rgb(255, 255, 255);"></path>
<path fill="#000000" opacity="1.000000" stroke="none" d="
M16.528801,1.000000 
	C18.315462,13.054710 19.628265,25.109713 20.947489,37.164009 
	C21.625256,43.357059 22.278097,49.553143 23.005920,55.740356 
	C24.632187,69.565193 26.376583,83.376595 27.922588,97.210266 
	C29.071224,107.488281 29.847841,117.808403 31.035513,128.081406 
	C32.538113,141.078415 34.370461,154.037109 35.907303,167.030457 
	C37.063404,176.804825 37.893833,186.617493 39.023628,196.395264 
	C40.187840,206.470856 41.587219,216.519104 42.791550,226.590317 
	C43.609951,233.434235 44.205860,240.304657 45.014988,247.149780 
	C46.263733,257.714081 47.671230,268.259796 48.896492,278.826691 
	C50.010616,288.435120 50.910122,298.068390 52.016376,307.677795 
	C53.251511,318.406769 54.668896,329.114716 55.902958,339.843811 
	C57.008789,349.458069 57.896633,359.097595 59.020985,368.709534 
	C60.238140,379.114868 61.660652,389.496002 62.905148,399.898285 
	C63.393723,403.982117 63.895340,408.092865 63.923779,412.194580 
	C63.948425,415.749420 65.256851,417.671448 68.530998,419.303436 
	C128.945419,449.416962 189.290909,479.668793 249.638214,509.916840 
	C251.060776,510.629852 252.336411,511.636017 253.340302,512.752686 
	C169.047668,513.000000 85.095337,513.000000 1.071504,513.000000 
	C1.071504,342.333344 1.071504,171.666687 1.068827,1.000005 
	C6.063301,1.000000 11.060452,1.000000 16.528801,1.000000 
z" data-index="3" style="opacity: 1; visibility: visible; fill: rgb(255, 255, 255);"></path>
<path fill="#D8D9D9" opacity="1.000000" stroke="none" d="
M256.992432,64.819336 
	C261.848145,64.781059 266.675629,64.906021 271.503174,64.907455 
	C320.322113,64.921997 369.141052,64.916344 417.959991,64.916344 
	C420.103607,64.916351 422.247223,64.916344 425.218689,64.916344 
	C424.750153,70.538239 424.423767,75.745468 423.862274,80.927216 
	C422.627686,92.320030 421.436218,103.723343 419.799286,115.060593 
	C419.546143,116.813660 417.319458,118.807281 415.514709,119.733696 
	C373.673126,141.211761 331.762329,162.554962 289.868561,183.931458 
	C284.926819,186.453003 280.009766,189.022888 275.329620,192.579651 
	C320.027374,192.579651 364.725098,192.579651 410.255371,192.579651 
	C409.776367,198.218246 409.479614,203.267639 408.898895,208.284164 
	C406.033966,233.032654 403.034088,257.765625 400.198212,282.517365 
	C397.702545,304.300079 395.374023,326.101929 392.944275,347.892242 
	C391.987183,356.475922 391.148560,365.082153 389.785492,373.602844 
	C389.531403,375.191284 387.267120,376.882324 385.540558,377.748993 
	C343.390198,398.906281 301.186829,419.958130 258.994415,441.031738 
	C258.550232,441.253571 258.124969,441.513336 257.383331,441.913879 
	C256.816437,441.890442 256.561890,441.701996 256.399506,440.949249 
	C256.659271,438.257812 256.977478,436.124420 256.981537,433.990448 
	C257.021790,412.780426 257.010132,391.570343 257.013153,370.360260 
	C257.013153,370.360260 256.992523,370.114166 257.364868,369.995911 
	C280.778656,358.324158 303.839600,346.808990 326.814545,335.124695 
	C328.236969,334.401337 329.734650,332.442108 329.929230,330.898102 
	C332.399841,311.291779 334.669281,291.659729 336.912598,272.025421 
	C337.449219,267.328735 337.701599,262.599609 338.115417,257.507660 
	C310.577301,257.507660 283.790649,257.507660 257.003998,257.507660 
	C257.003998,257.507660 256.965179,257.232147 256.979431,256.627258 
	C256.990112,192.396118 256.986511,128.769867 256.982910,65.143623 
	C256.982910,65.143623 256.964233,64.925240 256.992432,64.819336 
z" data-index="4" style="opacity: 1;"></path>
<path fill="#FEFFFF" opacity="1.000000" stroke="none" d="
M256.521942,65.071976 
	C256.986511,128.769867 256.990112,192.396118 256.985168,256.488220 
	C223.816238,257.011200 190.655823,257.076385 157.495392,257.121887 
	C142.182953,257.142883 126.870445,257.125458 110.980423,257.125458 
	C109.656151,246.180740 108.350410,235.502701 107.078560,224.820618 
	C106.586334,220.686493 106.644745,216.418442 105.596291,212.436813 
	C104.380424,207.819427 106.375557,206.078964 110.121948,204.168808 
	C157.127670,180.202103 204.052872,156.077469 250.995560,131.987167 
	C252.298996,131.318268 253.567505,130.581345 254.759186,129.066833 
	C201.956818,129.066833 149.154449,129.066833 95.980980,129.066833 
	C93.531776,107.532669 91.148582,86.578880 88.694336,65.000320 
	C144.840286,65.000320 200.450623,65.000320 256.521942,65.071976 
z" data-index="5"></path>
<path fill="#FEFFFF" opacity="1.000000" stroke="none" d="
M256.658447,370.253815 
	C257.010132,391.570343 257.021790,412.780426 256.981537,433.990448 
	C256.977478,436.124420 256.659271,438.257812 256.269226,440.751221 
	C218.242767,422.284027 180.433823,403.457306 142.625275,384.629761 
	C139.350464,382.999023 136.208755,380.979248 132.776703,379.812195 
	C126.339355,377.623138 123.942650,373.608398 123.290718,366.698212 
	C120.993652,342.350159 117.861313,318.081055 115.076614,293.778473 
	C114.926544,292.468811 115.057236,291.126953 115.057236,289.381805 
	C136.198334,289.381805 157.383759,289.381805 178.972214,289.381805 
	C180.630569,302.856049 182.168274,316.379456 184.089233,329.848206 
	C184.377457,331.869110 186.021790,334.483276 187.778214,335.388947 
	C210.542068,347.126312 233.439804,358.604095 256.658447,370.253815 
z" data-index="6" style="opacity: 1;"></path>
<path fill="#208DB8" opacity="1.000000" stroke="none" d="
M257.003021,257.943176 
	C283.790649,257.507660 310.577301,257.507660 338.115417,257.507660 
	C337.701599,262.599609 337.449219,267.328735 336.912598,272.025421 
	C334.669281,291.659729 332.399841,311.291779 329.929230,330.898102 
	C329.734650,332.442108 328.236969,334.401337 326.814545,335.124695 
	C303.839600,346.808990 280.778656,358.324158 257.381470,369.873596 
	C257.017853,332.705902 257.009949,295.542328 257.003021,257.943176 
z" data-index="7"></path>
</svg>