<svg version="1.1" id="Layer_1" xmlns="http://www.w3.org/2000/svg" xmlns:xlink="http://www.w3.org/1999/xlink" x="0px" y="0px"
	 width="100%" viewBox="0 0 512 512" enable-background="new 0 0 512 512" xml:space="preserve">
<path fill="#FFFFFF" opacity="1.000000" stroke="none" 
	d="
M513.000000,189.000000 
	C513.000000,296.959778 513.000000,404.919556 513.000000,512.939697 
	C342.437103,512.939697 171.874207,512.939697 1.000000,512.939697 
	C1.000000,405.310883 1.000000,297.621490 1.341909,189.615448 
	C3.497179,196.026855 6.091794,202.605820 12.477814,205.984955 
	C22.742828,211.416626 33.419281,216.070740 43.954971,221.516556 
	C43.997330,260.589050 44.006603,299.198364 43.702412,337.964294 
	C42.336895,339.166290 41.097305,340.081635 40.265766,341.280090 
	C36.952259,346.055573 34.419331,351.136536 37.084145,357.046051 
	C39.457027,362.308197 42.301208,367.271484 48.784630,368.410645 
	C42.680237,370.439636 38.041603,374.125763 37.065918,380.204681 
	C35.229687,391.645203 34.255417,403.226654 33.014965,414.759430 
	C31.963959,424.530914 31.317944,434.354156 29.980915,444.084198 
	C28.828854,452.468170 30.937586,457.832245 38.336704,458.483917 
	C48.711140,459.397644 59.272839,459.312500 69.664314,458.500854 
	C76.356873,457.978149 78.129578,454.759888 77.957436,447.590485 
	C77.819145,441.830811 77.449821,436.066681 76.924332,430.328247 
	C75.699066,416.947906 73.934235,403.605042 73.124466,390.202484 
	C72.504562,379.942383 69.134987,372.054688 59.391434,367.950256 
	C72.438698,360.416595 73.858963,345.954102 61.985466,337.342529 
	C62.019516,300.956116 62.045486,265.025665 62.415089,229.190613 
	C75.806908,234.871201 88.855095,240.456375 101.944984,246.505341 
	C101.992401,267.277374 102.076614,287.586029 101.967751,307.893677 
	C101.919800,316.837402 104.891495,324.944611 109.127907,332.434753 
	C118.425621,348.873505 132.654785,360.244202 149.089737,368.969971 
	C165.249817,377.549805 182.355499,383.439240 200.304932,387.208588 
	C219.034119,391.141663 237.825653,393.628204 257.449860,392.905182 
	C268.926086,392.320679 279.956696,391.890991 290.944427,390.957275 
	C306.733490,389.615509 322.092072,386.044617 337.075684,380.926025 
	C360.232819,373.015289 381.560120,362.115112 397.582153,342.881714 
	C406.125000,332.626617 411.902283,321.125610 411.979065,307.429962 
	C412.093781,286.968048 412.067993,266.505371 412.468445,246.013397 
	C418.199768,243.660278 423.553711,241.311127 428.931488,239.017899 
	C449.426453,230.278336 469.979126,221.671432 490.399445,212.761124 
	C496.803406,209.966797 503.322998,206.944534 507.033997,200.427872 
	C509.159027,196.696228 511.020111,192.814285 513.000000,189.000000 
z"/>
<path fill="#527992" opacity="1.000000" stroke="none" 
	d="
M43.921886,221.053406 
	C33.419281,216.070740 22.742828,211.416626 12.477814,205.984955 
	C6.091794,202.605820 3.497179,196.026855 1.341909,189.149414 
	C1.000000,183.977905 1.000000,178.955811 1.344693,173.312347 
	C3.378852,164.784668 7.149487,157.807831 14.291949,154.108582 
	C26.873503,147.592316 39.847733,141.797150 52.843868,136.127090 
	C72.716179,127.457047 92.772087,119.208923 112.702438,110.670532 
	C130.095932,103.218948 147.397873,95.553848 164.787125,88.092247 
	C184.862976,79.477844 205.009186,71.027481 225.088989,62.422245 
	C241.007645,55.600281 257.611664,52.941044 274.226959,57.921154 
	C288.677979,62.252560 302.594208,68.465157 316.560120,74.293594 
	C334.021423,81.580765 351.266754,89.383751 368.651245,96.857224 
	C388.871918,105.549950 409.135712,114.142578 429.393158,122.749481 
	C446.948151,130.208176 464.473206,137.740479 482.100311,145.025406 
	C495.796112,150.685608 508.815582,156.914627 513.000000,173.000000 
	C513.000000,178.022095 513.000000,183.044189 513.000000,188.533142 
	C511.020111,192.814285 509.159027,196.696228 507.033997,200.427872 
	C503.322998,206.944534 496.803406,209.966797 490.399445,212.761124 
	C469.979126,221.671432 449.426453,230.278336 428.931488,239.017899 
	C423.553711,241.311127 418.199768,243.660278 412.091003,246.034668 
	C398.984314,251.325012 386.610260,256.538116 374.261047,261.809479 
	C349.254486,272.483734 324.267517,283.203918 299.260284,293.876648 
	C285.704834,299.661926 272.308197,306.083618 256.493347,305.058411 
	C252.724701,304.876953 249.224976,305.340637 246.135712,304.422852 
	C236.644211,301.602783 227.083206,298.799255 217.957092,295.007599 
	C190.819168,283.732697 163.896225,271.941345 136.847870,260.449249 
	C125.252373,255.522644 113.554588,250.836807 101.903282,246.041565 
	C88.855095,240.456375 75.806908,234.871201 62.242867,228.816284 
	C61.453754,225.792831 61.180496,223.239105 60.863342,220.275192 
	C79.044289,217.107407 96.574043,214.042114 114.107964,211.000885 
	C134.429810,207.476105 154.752518,203.956177 175.080093,200.464722 
	C191.664948,197.616119 208.257523,194.812515 225.030518,192.281738 
	C227.001068,194.501678 228.518326,196.810287 230.618484,198.293625 
	C243.575531,207.445312 270.328125,207.612305 283.208313,198.288513 
	C286.023468,196.250656 288.716736,192.554489 289.288971,189.245529 
	C290.226257,183.825531 289.378998,178.096924 289.309448,172.131683 
	C287.197083,168.762390 285.661438,164.904877 282.818909,162.904068 
	C269.904724,153.814102 243.830750,154.033340 230.894348,162.893921 
	C227.534302,165.195343 224.580856,167.887924 224.485336,172.792557 
	C224.184921,174.043777 224.086990,174.994522 223.547607,175.950928 
	C221.444885,176.024536 219.752716,175.911194 218.127121,176.188309 
	C200.860474,179.131699 183.597015,182.095047 166.347015,185.134277 
	C130.869354,191.384964 95.416084,197.776062 59.915546,203.893356 
	C52.266193,205.211456 47.858372,209.592773 45.340275,216.482864 
	C44.793373,217.979294 44.390888,219.528488 43.921886,221.053406 
z"/>
<path fill="#FFFFFF" opacity="1.000000" stroke="none" 
	d="
M513.000000,172.531342 
	C508.815582,156.914627 495.796112,150.685608 482.100311,145.025406 
	C464.473206,137.740479 446.948151,130.208176 429.393158,122.749481 
	C409.135712,114.142578 388.871918,105.549950 368.651245,96.857224 
	C351.266754,89.383751 334.021423,81.580765 316.560120,74.293594 
	C302.594208,68.465157 288.677979,62.252560 274.226959,57.921154 
	C257.611664,52.941044 241.007645,55.600281 225.088989,62.422245 
	C205.009186,71.027481 184.862976,79.477844 164.787125,88.092247 
	C147.397873,95.553848 130.095932,103.218948 112.702438,110.670532 
	C92.772087,119.208923 72.716179,127.457047 52.843868,136.127090 
	C39.847733,141.797150 26.873503,147.592316 14.291949,154.108582 
	C7.149487,157.807831 3.378852,164.784668 1.344693,172.845490 
	C1.000000,115.695961 1.000000,58.391926 1.000000,1.043945 
	C171.550156,1.043945 342.100342,1.043945 513.000000,1.043945 
	C513.000000,58.020420 513.000000,115.041550 513.000000,172.531342 
z"/>
<path fill="#5C546A" opacity="1.000000" stroke="none" 
	d="
M101.944984,246.505341 
	C113.554588,250.836807 125.252373,255.522644 136.847870,260.449249 
	C163.896225,271.941345 190.819168,283.732697 217.957092,295.007599 
	C227.083206,298.799255 236.644211,301.602783 246.135712,304.422852 
	C249.224976,305.340637 252.724701,304.876953 256.509766,305.518921 
	C256.983612,334.940033 256.984344,363.887451 256.985077,392.834839 
	C237.825653,393.628204 219.034119,391.141663 200.304932,387.208588 
	C182.355499,383.439240 165.249817,377.549805 149.089737,368.969971 
	C132.654785,360.244202 118.425621,348.873505 109.127907,332.434753 
	C104.891495,324.944611 101.919800,316.837402 101.967751,307.893677 
	C102.076614,287.586029 101.992401,267.277374 101.944984,246.505341 
z"/>
<path fill="#5D647F" opacity="1.000000" stroke="none" 
	d="
M257.449860,392.905182 
	C256.984344,363.887451 256.983612,334.940033 256.966461,305.532166 
	C272.308197,306.083618 285.704834,299.661926 299.260284,293.876648 
	C324.267517,283.203918 349.254486,272.483734 374.261047,261.809479 
	C386.610260,256.538116 398.984314,251.325012 411.724548,246.064301 
	C412.067993,266.505371 412.093781,286.968048 411.979065,307.429962 
	C411.902283,321.125610 406.125000,332.626617 397.582153,342.881714 
	C381.560120,362.115112 360.232819,373.015289 337.075684,380.926025 
	C322.092072,386.044617 306.733490,389.615509 290.944427,390.957275 
	C279.956696,391.890991 268.926086,392.320679 257.449860,392.905182 
z"/>
<path fill="#5C546A" opacity="1.000000" stroke="none" 
	d="
M224.846664,191.988953 
	C208.257523,194.812515 191.664948,197.616119 175.080093,200.464722 
	C154.752518,203.956177 134.429810,207.476105 114.107964,211.000885 
	C96.574043,214.042114 79.044289,217.107407 60.863342,220.275192 
	C61.180496,223.239105 61.453754,225.792831 61.899235,228.720886 
	C62.045486,265.025665 62.019516,300.956116 61.604683,337.346680 
	C55.482330,334.703156 49.749077,335.794678 44.015873,337.807709 
	C44.006603,299.198364 43.997330,260.589050 43.954971,221.516541 
	C44.390888,219.528488 44.793373,217.979294 45.340275,216.482864 
	C47.858372,209.592773 52.266193,205.211456 59.915546,203.893356 
	C95.416084,197.776062 130.869354,191.384964 166.347015,185.134277 
	C183.597015,182.095047 200.860474,179.131699 218.127121,176.188309 
	C219.752716,175.911194 221.444885,176.024536 223.632446,176.415039 
	C224.388062,181.911987 224.617355,186.950485 224.846664,191.988953 
z"/>
<path fill="#FFD200" opacity="1.000000" stroke="none" 
	d="
M59.076546,368.092499 
	C69.134987,372.054688 72.504562,379.942383 73.124466,390.202484 
	C73.934235,403.605042 75.699066,416.947906 76.924332,430.328247 
	C77.449821,436.066681 77.819145,441.830811 77.957436,447.590485 
	C78.129578,454.759888 76.356873,457.978149 69.664314,458.500854 
	C59.272839,459.312500 48.711140,459.397644 38.336704,458.483917 
	C30.937586,457.832245 28.828854,452.468170 29.980915,444.084198 
	C31.317944,434.354156 31.963959,424.530914 33.014965,414.759430 
	C34.255417,403.226654 35.229687,391.645203 37.065918,380.204681 
	C38.041603,374.125763 42.680237,370.439636 49.244972,368.384338 
	C52.916218,368.049438 55.996380,368.070953 59.076546,368.092499 
z"/>
<path fill="#FF9600" opacity="1.000000" stroke="none" 
	d="
M59.391434,367.950256 
	C55.996380,368.070953 52.916218,368.049438 49.375706,368.054199 
	C42.301208,367.271484 39.457027,362.308197 37.084145,357.046051 
	C34.419331,351.136536 36.952259,346.055573 40.265766,341.280090 
	C41.097305,340.081635 42.336895,339.166290 43.702412,337.964294 
	C49.749077,335.794678 55.482330,334.703156 61.596596,337.802643 
	C73.858963,345.954102 72.438698,360.416595 59.391434,367.950256 
z"/>
<path fill="#FED101" opacity="1.000000" stroke="none" 
	d="
M224.687820,172.492096 
	C224.580856,167.887924 227.534302,165.195343 230.894348,162.893921 
	C243.830750,154.033340 269.904724,153.814102 282.818909,162.904068 
	C285.661438,164.904877 287.197083,168.762390 289.234741,172.550034 
	C288.869812,178.556595 285.108337,181.359619 281.168762,183.291519 
	C265.188934,191.127838 248.954346,191.119659 232.947800,183.366241 
	C228.623657,181.271667 224.820007,178.100311 224.687820,172.492096 
z"/>
<path fill="#FC9603" opacity="1.000000" stroke="none" 
	d="
M224.485336,172.792557 
	C224.820007,178.100311 228.623657,181.271667 232.947800,183.366241 
	C248.954346,191.119659 265.188934,191.127838 281.168762,183.291519 
	C285.108337,181.359619 288.869812,178.556595 289.209656,172.916809 
	C289.378998,178.096924 290.226257,183.825531 289.288971,189.245529 
	C288.716736,192.554489 286.023468,196.250656 283.208313,198.288513 
	C270.328125,207.612305 243.575531,207.445312 230.618484,198.293625 
	C228.518326,196.810287 227.001068,194.501678 225.030518,192.281738 
	C224.617355,186.950485 224.388062,181.911987 224.073914,176.409393 
	C224.086990,174.994522 224.184921,174.043777 224.485336,172.792557 
z"/>
</svg>