<svg version="1.1" id="Layer_1" xmlns="http://www.w3.org/2000/svg" xmlns:xlink="http://www.w3.org/1999/xlink" x="0px" y="0px" width="100%" viewBox="0 0 512 512" enable-background="new 0 0 512 512" xml:space="preserve">
<path fill="#000000" opacity="1.000000" stroke="none" d="
M336.000000,513.000000 
	C224.027206,513.000000 112.554405,513.000000 1.040803,513.000000 
	C1.040803,342.402191 1.040803,171.804352 1.040803,1.103257 
	C171.556137,1.103257 342.112366,1.103257 512.834290,1.103257 
	C512.834290,171.666534 512.834290,342.333252 512.834290,513.000000 
	C454.137665,513.000000 395.318817,513.000000 336.000000,513.000000 
M22.090057,172.229019 
	C22.079067,249.001694 22.272526,325.775391 21.893293,402.546234 
	C21.812555,418.890961 36.102051,435.535339 54.507492,435.094757 
	C77.975502,434.533020 101.467224,434.967194 124.948692,434.948669 
	C126.214386,434.947693 127.479919,434.730713 128.979874,434.592743 
	C128.979874,432.452393 128.979874,430.638519 128.979874,428.824646 
	C128.979874,391.187622 128.963028,353.550629 128.986481,315.913605 
	C128.999557,294.933044 129.079636,273.952515 129.759186,253.233322 
	C130.595428,253.735245 131.490829,254.160187 132.259155,254.750504 
	C146.947098,266.035522 161.545258,277.438873 176.312820,288.618439 
	C201.647171,307.797424 227.156631,326.746002 252.399292,346.044098 
	C255.970657,348.774384 257.983398,348.899963 261.565002,346.078247 
	C277.040131,333.886505 292.792572,322.045166 308.502930,310.153992 
	C324.327057,298.176727 340.206665,286.272583 356.089142,274.372681 
	C365.658752,267.202667 375.280212,260.101837 384.980286,253.906952 
	C384.980286,314.149994 384.980286,374.393005 384.980286,434.655426 
	C386.407898,434.818573 387.056030,434.957306 387.704193,434.957428 
	C412.865967,434.962311 438.027710,434.959259 463.189453,434.933258 
	C464.342590,434.932068 465.517944,434.815277 466.645172,434.575012 
	C482.502014,431.195007 492.188934,416.126984 492.127594,402.326050 
	C491.792725,327.008636 491.970612,251.688965 491.958832,176.370071 
	C491.958557,174.711533 491.798615,173.053040 491.925934,170.409546 
	C491.933075,155.253677 491.978088,140.097702 491.935822,124.941971 
	C491.899475,111.908340 486.504822,100.986977 477.368164,92.209259 
	C460.890350,76.378784 435.244263,74.033409 416.293060,87.438126 
	C405.900635,94.788986 395.888336,102.677246 384.990753,110.686600 
	C372.226593,120.414871 359.478638,130.164459 346.695038,139.867096 
	C317.735260,161.847260 288.782562,183.837112 259.700104,205.653870 
	C258.504578,206.550690 255.442978,206.510315 254.228043,205.600952 
	C231.916519,188.900558 209.776382,171.971466 187.553986,155.151581 
	C168.099380,140.426605 148.587830,125.776825 128.635483,110.575050 
	C119.485336,103.626945 110.348907,96.660667 101.181236,89.735764 
	C91.715057,82.585365 81.301781,78.486618 69.162621,78.928375 
	C57.543694,79.351181 47.531693,82.955482 38.567703,90.598579 
	C29.031507,98.729561 22.974005,108.864777 22.264664,120.953056 
	C21.282429,137.691895 22.111300,154.536987 22.090057,172.229019 
z" data-index="0" style="opacity: 1; visibility: visible; fill: rgb(255, 255, 255);"></path>
<path fill="#D85040" opacity="1.000000" stroke="none" d="
M384.878387,252.969940 
	C375.280212,260.101837 365.658752,267.202667 356.089142,274.372681 
	C340.206665,286.272583 324.327057,298.176727 308.502930,310.153992 
	C292.792572,322.045166 277.040131,333.886505 261.565002,346.078247 
	C257.983398,348.899963 255.970657,348.774384 252.399292,346.044098 
	C227.156631,326.746002 201.647171,307.797424 176.312820,288.618439 
	C161.545258,277.438873 146.947098,266.035522 132.259155,254.750504 
	C131.490829,254.160187 130.595428,253.735245 129.373718,252.841217 
	C128.981400,252.268707 128.974564,252.088287 128.970108,251.448273 
	C129.015457,204.357056 129.058441,157.725433 129.101440,111.093826 
	C148.587830,125.776825 168.099380,140.426605 187.553986,155.151581 
	C209.776382,171.971466 231.916519,188.900558 254.228043,205.600952 
	C255.442978,206.510315 258.504578,206.550690 259.700104,205.653870 
	C288.782562,183.837112 317.735260,161.847260 346.695038,139.867096 
	C359.478638,130.164459 372.226593,120.414871 385.177795,111.038902 
	C385.267731,112.883324 385.086273,114.375412 385.085754,115.867569 
	C385.070618,159.325668 385.069275,202.783768 385.089905,246.241852 
	C385.090698,247.896576 385.331604,249.551178 385.363220,251.499756 
	C385.136627,252.185760 385.007507,252.577866 384.878387,252.969940 
z" data-index="1" style="opacity: 1;"></path>
<path fill="#58A45C" opacity="1.000000" stroke="none" d="
M384.929321,253.438446 
	C385.007507,252.577866 385.136627,252.185760 385.654785,251.367981 
	C403.039124,238.104248 420.017426,225.243546 437.034454,212.434296 
	C455.241638,198.729095 473.485352,185.072372 491.713135,171.394501 
	C491.798615,173.053040 491.958557,174.711533 491.958832,176.370071 
	C491.970612,251.688965 491.792725,327.008636 492.127594,402.326050 
	C492.188934,416.126984 482.502014,431.195007 466.645172,434.575012 
	C465.517944,434.815277 464.342590,434.932068 463.189453,434.933258 
	C438.027710,434.959259 412.865967,434.962311 387.704193,434.957428 
	C387.056030,434.957306 386.407898,434.818573 384.980286,434.655426 
	C384.980286,374.393005 384.980286,314.149994 384.929321,253.438446 
z" data-index="2"></path>
<path fill="#4E85EA" opacity="1.000000" stroke="none" d="
M128.967743,251.907883 
	C128.974564,252.088287 128.981400,252.268707 129.058868,252.710541 
	C129.079636,273.952515 128.999557,294.933044 128.986481,315.913605 
	C128.963028,353.550629 128.979874,391.187622 128.979874,428.824646 
	C128.979874,430.638519 128.979874,432.452393 128.979874,434.592743 
	C127.479919,434.730713 126.214386,434.947693 124.948692,434.948669 
	C101.467224,434.967194 77.975502,434.533020 54.507492,435.094757 
	C36.102051,435.535339 21.812555,418.890961 21.893293,402.546234 
	C22.272526,325.775391 22.079067,249.001694 22.406952,171.925598 
	C58.138481,198.384064 93.553116,225.145981 128.967743,251.907883 
z" data-index="3"></path>
<path fill="#B5332A" opacity="1.000000" stroke="none" d="
M128.970108,251.448273 
	C93.553116,225.145981 58.138481,198.384064 22.444250,171.479370 
	C22.111300,154.536987 21.282429,137.691895 22.264664,120.953056 
	C22.974005,108.864777 29.031507,98.729561 38.567703,90.598579 
	C47.531693,82.955482 57.543694,79.351181 69.162621,78.928375 
	C81.301781,78.486618 91.715057,82.585365 101.181236,89.735764 
	C110.348907,96.660667 119.485336,103.626945 128.868469,110.834442 
	C129.058441,157.725433 129.015457,204.357056 128.970108,251.448273 
z" data-index="4"></path>
<path fill="#F2BB42" opacity="1.000000" stroke="none" d="
M491.819519,170.902023 
	C473.485352,185.072372 455.241638,198.729095 437.034454,212.434296 
	C420.017426,225.243546 403.039124,238.104248 385.752258,251.074066 
	C385.331604,249.551178 385.090698,247.896576 385.089905,246.241852 
	C385.069275,202.783768 385.070618,159.325668 385.085754,115.867569 
	C385.086273,114.375412 385.267731,112.883324 385.534729,110.857201 
	C395.888336,102.677246 405.900635,94.788986 416.293060,87.438126 
	C435.244263,74.033409 460.890350,76.378784 477.368164,92.209259 
	C486.504822,100.986977 491.899475,111.908340 491.935822,124.941971 
	C491.978088,140.097702 491.933075,155.253677 491.819519,170.902023 
z" data-index="5"></path>
</svg>