<svg version="1.1" id="Layer_1" xmlns="http://www.w3.org/2000/svg" xmlns:xlink="http://www.w3.org/1999/xlink" x="0px" y="0px" width="100%" viewBox="0 0 512 512" enable-background="new 0 0 512 512" xml:space="preserve">
<path fill="#6CDC2D" opacity="1.000000" stroke="none" d="
M225.000000,1.000000 
	C246.020889,1.000000 267.041779,1.000000 288.331909,1.395506 
	C289.278625,2.184103 289.916077,2.810684 290.639618,2.934552 
	C298.828400,4.336406 307.132629,5.218918 315.210236,7.086786 
	C343.388367,13.602674 369.804749,24.493425 394.224365,40.066498 
	C415.765137,53.803654 434.594025,70.605759 451.454987,89.808075 
	C464.169617,104.288330 475.004456,120.014198 483.882629,136.985474 
	C498.050995,164.069275 507.873871,192.651169 511.093994,223.261459 
	C511.161224,223.900742 512.339844,224.423096 513.000000,225.000000 
	C513.000000,246.020889 513.000000,267.041779 512.604736,288.332336 
	C511.477264,292.038757 510.560760,295.448029 510.042572,298.916809 
	C506.554047,322.270050 499.870575,344.766937 489.319946,365.775665 
	C481.601135,381.145538 472.470306,395.926178 462.764343,410.147400 
	C450.985260,427.406036 436.031464,442.096771 419.934570,455.310883 
	C401.628510,470.338501 381.646393,482.868744 359.673523,492.158539 
	C337.652771,501.468506 315.076111,508.423065 291.252106,511.081970 
	C290.440186,511.172577 289.748016,512.336426 289.000000,513.000000 
	C267.979095,513.000000 246.958206,513.000000 225.668152,512.605469 
	C224.555450,511.810791 223.751068,511.230682 222.862579,511.037476 
	C209.036560,508.031372 195.050537,505.632141 181.400482,501.976349 
	C161.289307,496.590118 142.620453,487.629913 124.750114,476.969147 
	C97.390656,460.647461 74.105843,439.595154 54.481884,414.720276 
	C41.244999,397.941589 30.221781,379.629883 21.860146,359.765564 
	C12.575392,337.708191 5.553520,315.117554 2.918031,291.256195 
	C2.828259,290.443420 1.663627,289.749390 1.000000,289.000000 
	C1.000000,267.645782 1.000000,246.291550 1.389144,224.676575 
	C2.181860,223.573318 2.807257,222.767517 2.953725,221.882431 
	C4.072366,215.122864 4.632825,208.235779 6.233335,201.597244 
	C12.763166,174.513000 22.512472,148.714218 36.990917,124.744728 
	C53.451641,97.493546 74.365860,74.152077 99.206528,54.521709 
	C118.213646,39.501316 139.129196,27.345631 161.861374,18.593348 
	C181.548126,11.013615 201.684158,5.190781 222.745316,2.917513 
	C223.556412,2.829966 224.251083,1.663642 225.000000,1.000000 
M112.458824,134.069656 
	C111.306732,136.035416 110.057915,137.951447 109.017677,139.974701 
	C99.709030,158.079712 100.481758,177.020660 104.618301,196.155548 
	C110.294365,222.411957 122.700699,245.820557 137.635559,267.612122 
	C149.732010,285.262085 163.232162,302.181702 177.828949,317.820557 
	C192.092636,333.102509 207.939865,347.081329 224.174896,360.302368 
	C242.769135,375.444550 263.103699,388.215790 285.137695,398.045471 
	C303.979919,406.451233 323.233795,412.564148 344.281738,412.118469 
	C361.912079,411.745148 376.937897,406.085785 389.169678,393.319061 
	C395.015503,387.217590 400.708374,380.967773 406.622406,374.933990 
	C413.777344,367.634277 414.381317,356.080139 407.276520,348.861359 
	C390.331177,331.644196 373.277832,314.528870 356.018890,297.626892 
	C348.796082,290.553497 337.308746,290.513947 330.271820,298.153900 
	C326.215210,302.558136 321.923035,306.758789 317.567413,310.871613 
	C306.855347,320.986603 292.816833,323.917023 279.406342,316.708984 
	C263.482147,308.149841 248.934402,297.552094 235.758514,285.187714 
	C220.566483,270.931366 208.434906,254.226593 198.040619,236.251999 
	C191.218979,224.455521 191.429108,210.779144 200.304932,200.274384 
	C205.107834,194.590012 210.057175,188.914673 215.634583,184.027420 
	C223.212708,177.387009 223.146515,164.731506 216.293274,157.829910 
	C199.271133,140.687759 182.248184,123.544044 165.023758,106.606178 
	C157.451157,99.159576 146.272842,100.753441 141.460236,105.245293 
	C131.679306,114.374306 122.436882,124.080284 112.458824,134.069656 
z" data-index="0" style="opacity: 1;"></path>
<path fill="#000000" opacity="1.000000" stroke="none" d="
M513.000000,224.531342 
	C512.339844,224.423096 511.161224,223.900742 511.093994,223.261459 
	C507.873871,192.651169 498.050995,164.069275 483.882629,136.985474 
	C475.004456,120.014198 464.169617,104.288330 451.454987,89.808075 
	C434.594025,70.605759 415.765137,53.803654 394.224365,40.066498 
	C369.804749,24.493425 343.388367,13.602674 315.210236,7.086786 
	C307.132629,5.218918 298.828400,4.336406 290.639618,2.934552 
	C289.916077,2.810684 289.278625,2.184103 288.800598,1.395506 
	C363.593719,1.000000 438.187408,1.000000 513.000000,1.000000 
	C513.000000,75.354088 513.000000,149.708389 513.000000,224.531342 
z" data-index="1" style="opacity: 1; stroke-width: 2px; stroke: rgb(255, 255, 255); visibility: visible; fill: rgb(255, 255, 255);"></path>
<path fill="#000000" opacity="1.000000" stroke="none" d="
M1.000000,289.468658 
	C1.663627,289.749390 2.828259,290.443420 2.918031,291.256195 
	C5.553520,315.117554 12.575392,337.708191 21.860146,359.765564 
	C30.221781,379.629883 41.244999,397.941589 54.481884,414.720276 
	C74.105843,439.595154 97.390656,460.647461 124.750114,476.969147 
	C142.620453,487.629913 161.289307,496.590118 181.400482,501.976349 
	C195.050537,505.632141 209.036560,508.031372 222.862579,511.037476 
	C223.751068,511.230682 224.555450,511.810791 225.199493,512.605469 
	C150.406296,513.000000 75.812599,513.000000 1.000000,513.000000 
	C1.000000,438.645905 1.000000,364.291626 1.000000,289.468658 
z" data-index="2" style="opacity: 1; visibility: visible; fill: rgb(255, 255, 255);"></path>
<path fill="#000000" opacity="1.000000" stroke="none" d="
M289.468658,513.000000 
	C289.748016,512.336426 290.440186,511.172577 291.252106,511.081970 
	C315.076111,508.423065 337.652771,501.468506 359.673523,492.158539 
	C381.646393,482.868744 401.628510,470.338501 419.934570,455.310883 
	C436.031464,442.096771 450.985260,427.406036 462.764343,410.147400 
	C472.470306,395.926178 481.601135,381.145538 489.319946,365.775665 
	C499.870575,344.766937 506.554047,322.270050 510.042572,298.916809 
	C510.560760,295.448029 511.477264,292.038757 512.604736,288.800964 
	C513.000000,363.593719 513.000000,438.187408 513.000000,513.000000 
	C438.645905,513.000000 364.291626,513.000000 289.468658,513.000000 
z" data-index="3" style="opacity: 1; visibility: visible; fill: rgb(255, 255, 255);"></path>

<path fill="#000000" opacity="1.000000" stroke="none" d="
M112.715675,133.809067 
	C122.436882,124.080284 131.679306,114.374306 141.460236,105.245293 
	C146.272842,100.753441 157.451157,99.159576 165.023758,106.606178 
	C182.248184,123.544044 199.271133,140.687759 216.293274,157.829910 
	C223.146515,164.731506 223.212708,177.387009 215.634583,184.027420 
	C210.057175,188.914673 205.107834,194.590012 200.304932,200.274384 
	C191.429108,210.779144 191.218979,224.455521 198.040619,236.251999 
	C208.434906,254.226593 220.566483,270.931366 235.758514,285.187714 
	C248.934402,297.552094 263.482147,308.149841 279.406342,316.708984 
	C292.816833,323.917023 306.855347,320.986603 317.567413,310.871613 
	C321.923035,306.758789 326.215210,302.558136 330.271820,298.153900 
	C337.308746,290.513947 348.796082,290.553497 356.018890,297.626892 
	C373.277832,314.528870 390.331177,331.644196 407.276520,348.861359 
	C414.381317,356.080139 413.777344,367.634277 406.622406,374.933990 
	C400.708374,380.967773 395.015503,387.217590 389.169678,393.319061 
	C376.937897,406.085785 361.912079,411.745148 344.281738,412.118469 
	C323.233795,412.564148 303.979919,406.451233 285.137695,398.045471 
	C263.103699,388.215790 242.769135,375.444550 224.174896,360.302368 
	C207.939865,347.081329 192.092636,333.102509 177.828949,317.820557 
	C163.232162,302.181702 149.732010,285.262085 137.635559,267.612122 
	C122.700699,245.820557 110.294365,222.411957 104.618301,196.155548 
	C100.481758,177.020660 99.709030,158.079712 109.017677,139.974701 
	C110.057915,137.951447 111.306732,136.035416 112.715675,133.809067 
z" data-index="5" style="opacity: 1; visibility: visible; fill: rgb(255, 255, 255);"></path>
</svg>